<svg width="66" height="66" viewBox="0 0 66 66" xmlns="http://www.w3.org/2000/svg">
    <defs>
        <linearGradient x1="88.644%" y1="0%" x2="29.369%" y2="100%" id="hvrh5rr8da">
            <stop stop-color="#0DD17F" offset="0%"/>
            <stop stop-color="#01B167" offset="100%"/>
        </linearGradient>
    </defs>
    <g fill="none" fill-rule="evenodd">
        <path d="M25 0C11.193 0 0 11.193 0 25v16c0 13.807 11.193 25 25 25h16c13.807 0 25-11.193 25-25V25C66 11.193 54.807 0 41 0H25z" fill="url(#hvrh5rr8da)"/>
        <path d="M32.777 16c.167.001.341.078.524.19.097.06.197.128.299.202l.316.246c.44.332.922.701 1.59.845.336.07.645.084.946.05.295-.017.584-.091.85-.144.537-.121 1.013-.237 1.328-.08.316.156.511.607.74 1.106.233.503.489 1.05 1.012 1.489.524.44 1.098.611 1.634.756.53.143 1.006.261 1.212.546.207.286.171.775.142 1.324-.025.552-.053 1.158.208 1.788.26.633.69 1.05 1.097 1.428.404.373.768.7.82 1.048a.686.686 0 0 1 .005.086c0 .15-.046.314-.125.487-.1.207-.228.428-.37.665-.285.477-.587.999-.648 1.68-.072.68.12 1.251.307 1.775.094.26.177.501.234.724.052.22.06.418.006.585-.118.332-.54.581-1.008.869-.473.29-.976.616-1.354 1.185-.38.568-.47 1.167-.553 1.714-.079.544-.14 1.03-.397 1.27-.176.162-.458.225-.793.26l3.07 8.512a.3.3 0 0 1-.266.402l-.069-.004-4.57-.8-3.008 3.537a.3.3 0 0 1-.48-.03l-.031-.062-2.48-6.872-2.477 6.872a.3.3 0 0 1-.051.09l-.037.037a.3.3 0 0 1-.372.013l-.05-.048-3.01-3.538-4.57.8a.3.3 0 0 1-.35-.33l.016-.067 2.992-8.295a.687.687 0 0 1-.157-.098c-.268-.228-.35-.712-.453-1.252-.106-.543-.224-1.137-.628-1.688-.403-.552-.922-.854-1.407-1.123-.481-.265-.915-.494-1.047-.82-.133-.327.019-.794.179-1.32.156-.53.329-1.11.227-1.785-.102-.677-.413-1.186-.722-1.65-.145-.23-.298-.446-.398-.648a1.486 1.486 0 0 1-.138-.391l-.012-.122v-.034l.002-.02c.021-.174.119-.348.256-.526.138-.18.33-.36.516-.558.394-.395.799-.834 1.03-1.477.232-.642.176-1.245.125-1.796-.054-.547-.112-1.034.082-1.329.194-.294.664-.434 1.188-.6.528-.169 1.095-.364 1.598-.827.504-.461.736-1.02.946-1.533.206-.509.38-.967.687-1.139.309-.17.79-.076 1.33.019.548.097 1.14.184 1.8.009.164-.051.32-.097.46-.167.143-.07.276-.144.402-.223.252-.166.476-.347.687-.526.372-.315.705-.608 1.021-.673l.118-.013.029-.001zM33 19.448a9.052 9.052 0 1 0 0 18.104 9.052 9.052 0 0 0 0-18.104zm0 2.586a6.466 6.466 0 1 1 0 12.932 6.466 6.466 0 0 1 0-12.932z" fill="#FFF"/>
    </g>
</svg>
