<svg width="66" height="66" viewBox="0 0 66 66" xmlns="http://www.w3.org/2000/svg">
    <defs>
        <linearGradient x1="88.644%" y1="0%" x2="29.369%" y2="100%" id="ej7tcqtjba">
            <stop stop-color="#0DD17F" offset="0%"/>
            <stop stop-color="#01B167" offset="100%"/>
        </linearGradient>
    </defs>
    <g fill="none" fill-rule="evenodd">
        <path d="M25 0C11.193 0 0 11.193 0 25v16c0 13.807 11.193 25 25 25h16c13.807 0 25-11.193 25-25V25C66 11.193 54.807 0 41 0H25z" fill="url(#ej7tcqtjba)"/>
        <path d="M26.303 34.754c.257.003 2.728.067 5.034 1.25-1.718 1.668-2.708 3.966-2.708 6.903 0 .631.306 1.22.814 1.582l.012.007-.395.042c-.806.08-1.692.132-2.66.146l-.491.003h-.39c-6.54 0-9.519-1.78-9.519-1.78 0-7.92 8.632-8.147 9.126-8.153h1.177zm4.317 7.149.016-.142a8.996 8.996 0 0 1 .179-1.011 7.826 7.826 0 0 1 .28-.905 7.095 7.095 0 0 1 .403-.872l-.067.125a6.748 6.748 0 0 1 1.557-1.968l.012-.011c2.593-2.263 6.375-2.36 6.697-2.365h1.177c.494.006 9.126.233 9.126 8.153 0 0-2.979 1.78-9.52 1.78h-.389c-3.186 0-5.527-.422-7.09-.856l-.03-.008-.093-.026c-.38-.108-.711-.216-.995-.318l-.041-.015-.063-.023c-.814-.299-1.208-.534-1.208-.534 0-.33.015-.648.044-.953l.005-.051zM25.873 20c.195.012 5.452.38 5.452 5.5 0 0-.154 5.914-5.13 6.129l-.281.006h-.388c-5.252 0-5.412-6.134-5.412-6.134 0-4.444 3.96-5.309 5.133-5.467l.137-.017.179-.017h.31zm14.572 0c.018.001.081.006.181.017l.137.017c1.173.158 5.133 1.023 5.133 5.467 0 0-.16 6.134-5.41 6.134h-.389c-5.251 0-5.411-6.134-5.411-6.134 0-5.217 5.456-5.501 5.456-5.501z" fill="#FFF"/>
    </g>
</svg>
