<svg width="122" height="122" viewBox="0 0 122 122" xmlns="http://www.w3.org/2000/svg" xmlns:xlink="http://www.w3.org/1999/xlink">
    <defs>
        <path d="M5 0h44a5 5 0 0 1 5 5v44a5 5 0 0 1-5 5H5a5 5 0 0 1-5-5V5a5 5 0 0 1 5-5z" id="c4bxwptxka"/>
    </defs>
    <g fill="none" fill-rule="evenodd">
        <path d="M38 0h46c20.987 0 38 17.013 38 38v46c0 20.987-17.013 38-38 38H38c-20.987 0-38-17.013-38-38V38C0 17.013 17.013 0 38 0" fill="#EDCBF8"/>
        <g transform="translate(34 34)">
            <mask id="d0dldqnbgb" fill="#fff">
                <use xlink:href="#c4bxwptxka"/>
            </mask>
            <use fill="#C46FE0" xlink:href="#c4bxwptxka"/>
            <path d="M27.26 44C36.014 44 40 41.62 40 41.62c0-10.898-12.242-10.898-12.242-10.898h-1.516S14 30.722 14 41.621c0 0 3.986 2.379 12.74 2.379h.52zm.007-16.747c7.028 0 7.241-8.9 7.241-8.9 0-6.974-7.303-7.353-7.303-7.353h-.397s-7.302.38-7.302 7.353c0 0 .214 8.9 7.242 8.9h.519z" fill="#FFF" mask="url(#d0dldqnbgb)"/>
        </g>
    </g>
</svg>
