<svg width="122" height="122" viewBox="0 0 122 122" xmlns="http://www.w3.org/2000/svg">
    <g fill="none" fill-rule="evenodd">
        <path d="M38 0h46c20.987 0 38 17.013 38 38v46c0 20.987-17.013 38-38 38H38c-20.987 0-38-17.013-38-38V38C0 17.013 17.013 0 38 0" fill="#AFEFD4"/>
        <g transform="translate(29 29)">
            <rect fill="#00B86B" width="64" height="64" rx="32"/>
            <path d="M31.946 40.002c4.546.378 8.027 2.494 8.027 5.048 0 2.82-4.247 5.108-9.487 5.108-5.239 0-9.486-2.287-9.486-5.108 0-2.082 2.313-3.873 5.63-4.669l.002 3.436a2.657 2.657 0 0 0 5.309.168l.005-.168v-.47a1.46 1.46 0 1 1-2.919 0V15.46a1.46 1.46 0 0 1 2.919 0L48 21.186l-16.054 5.95v12.866z" fill="#FFF"/>
        </g>
    </g>
</svg>
