<svg width="122" height="122" viewBox="0 0 122 122" xmlns="http://www.w3.org/2000/svg">
    <g fill="none" fill-rule="evenodd">
        <path d="M38 0h46c20.987 0 38 17.013 38 38v46c0 20.987-17.013 38-38 38H38c-20.987 0-38-17.013-38-38V38C0 17.013 17.013 0 38 0" fill="#FFE69B"/>
        <g transform="translate(29 29)">
            <rect fill="#F3A11D" width="64" height="64" rx="32"/>
            <path d="M31.741 14c.194.001.396.09.609.221.112.069.227.148.346.234l.367.285c.51.386 1.07.813 1.843.98.39.081.749.098 1.098.06.342-.022.678-.108.987-.17.622-.14 1.174-.273 1.54-.092.366.182.593.704.858 1.284.27.582.567 1.218 1.175 1.726.607.51 1.273.71 1.894.877.615.166 1.167.304 1.407.634.24.331.198.899.164 1.536-.028.64-.061 1.343.242 2.074.301.734.8 1.219 1.272 1.656.469.433.891.812.951 1.216a.796.796 0 0 1 .006.1c0 .175-.053.364-.146.565a9.74 9.74 0 0 1-.429.771c-.33.553-.68 1.159-.75 1.949-.085.79.14 1.451.355 2.059.11.3.205.581.272.84.06.256.07.485.007.678-.137.385-.627.674-1.17 1.008-.548.337-1.132.715-1.57 1.375-.44.659-.546 1.354-.642 1.988-.091.63-.161 1.196-.46 1.474-.205.188-.532.261-.921.302l3.59 9.951a.3.3 0 0 1-.266.402l-.069-.004-5.383-.943-3.543 4.167a.3.3 0 0 1-.48-.03l-.03-.062-2.904-8.05-2.903 8.05a.3.3 0 0 1-.051.09l-.037.036a.3.3 0 0 1-.372.013l-.05-.047-3.544-4.167-5.383.943a.3.3 0 0 1-.35-.33l.016-.068 3.498-9.7a.797.797 0 0 1-.182-.114c-.311-.265-.406-.826-.525-1.452-.123-.63-.26-1.319-.729-1.958-.468-.64-1.07-.991-1.632-1.303-.558-.308-1.061-.573-1.215-.952-.154-.378.022-.92.207-1.53.182-.615.382-1.289.264-2.072-.118-.784-.479-1.375-.837-1.913-.168-.267-.345-.517-.462-.752a1.658 1.658 0 0 1-.165-.482l-.009-.113v-.039l.002-.023c.025-.202.138-.404.297-.611.16-.207.383-.418.599-.647.457-.458.926-.967 1.195-1.713.269-.745.203-1.445.145-2.084-.063-.634-.13-1.2.095-1.54.225-.342.77-.504 1.378-.697.612-.196 1.27-.423 1.854-.96.584-.535.853-1.183 1.097-1.777.238-.591.44-1.123.797-1.322.358-.197.916-.089 1.543.022.635.112 1.322.214 2.088.01.19-.06.37-.113.534-.194.165-.08.32-.166.466-.258.291-.192.552-.403.796-.61.438-.37.827-.713 1.199-.783l.123-.013.033-.001zM32 18c-5.799 0-10.5 4.701-10.5 10.5S26.201 39 32 39s10.5-4.701 10.5-10.5S37.799 18 32 18zm0 3a7.5 7.5 0 1 1 0 15 7.5 7.5 0 0 1 0-15z" fill="#FFF"/>
        </g>
    </g>
</svg>
