<svg width="66" height="66" viewBox="0 0 66 66" xmlns="http://www.w3.org/2000/svg">
    <defs>
        <linearGradient x1="88.644%" y1="0%" x2="29.369%" y2="100%" id="6apw0cfu5a">
            <stop stop-color="#0DD17F" offset="0%"/>
            <stop stop-color="#01B167" offset="100%"/>
        </linearGradient>
    </defs>
    <g fill="none" fill-rule="evenodd">
        <path d="M25 0C11.193 0 0 11.193 0 25v16c0 13.807 11.193 25 25 25h16c13.807 0 25-11.193 25-25V25C66 11.193 54.807 0 41 0H25z" fill="url(#6apw0cfu5a)"/>
        <path d="M42 25a3 3 0 0 1 3 3v14.643a3 3 0 0 1-3 3H24a3 3 0 0 1-3-3V28a3 3 0 0 1 3-3h18zm-8.654 11.451h-.691c-.37.007-4.9.174-5.155 4.261-.007.118.078.418.26.5.612.275 2.272.874 5.13.874h.22c2.843 0 4.5-.593 5.12-.87.189-.084.277-.388.27-.507-.257-4.084-4.785-4.25-5.154-4.258zm-.252-7.73h-.175s-2.991.161-2.991 3.12c0 0 .353 3.468 2.965 3.48h.22c2.62.028 2.93-3.48 2.93-3.48 0-2.874-2.79-3.108-2.949-3.12z" fill="#FFF"/>
        <path d="M27 28v-6a6 6 0 1 1 12 0v6" stroke="#FFF" stroke-width="2.5" stroke-linecap="round"/>
    </g>
</svg>
