<svg width="28" height="28" viewBox="0 0 28 28" xmlns="http://www.w3.org/2000/svg">
    <path d="M20.988 14.295a5.682 5.682 0 0 1 2.706-4.767 5.816 5.816 0 0 0-4.582-2.477c-1.928-.202-3.797 1.154-4.78 1.154-1.001 0-2.514-1.134-4.142-1.1a6.102 6.102 0 0 0-5.136 3.131c-2.22 3.845-.564 9.494 1.563 12.602 1.064 1.521 2.308 3.22 3.935 3.16 1.593-.066 2.187-1.015 4.11-1.015 1.904 0 2.462 1.015 4.122.977 1.709-.028 2.786-1.528 3.812-3.064a12.585 12.585 0 0 0 1.744-3.55 5.49 5.49 0 0 1-3.352-5.051zm-3.136-9.288A5.594 5.594 0 0 0 19.132 1a5.691 5.691 0 0 0-3.683 1.905 5.323 5.323 0 0 0-1.313 3.86 4.706 4.706 0 0 0 3.716-1.758z" fill="#DBDBDB" fill-rule="nonzero"/>
</svg>
