<svg width="77" height="56" viewBox="0 0 77 56" xmlns="http://www.w3.org/2000/svg">
    <g fill="none" fill-rule="evenodd">
        <path d="M3.689 3.747C15.634 1.25 27.574 0 39.509 0 51.44 0 63.372 1.248 75.303 3.745a1.499 1.499 0 0 1 1.197 1.47V54.15a1.5 1.5 0 0 1-1.8 1.47C62.98 53.207 51.252 52 39.515 52c-11.738 0-23.475 1.207-35.212 3.62A1.5 1.5 0 0 1 2.5 54.15V5.216c0-.709.496-1.32 1.189-1.469z" fill="#4890EC"/>
        <path d="M41.95 11.465c.41.774.659 1.593.76 2.415a8354.943 8354.943 0 0 1 9.244-5.418c.13-.075.282-.142.457-.194 1.5-.45 2.158.981 2.25 1.204l.012.029s1.99 5.978 2.271 6.908c.267.88-.507 1.723-.59 1.81l-.007.007-5.69 4.266-1.861 1.379 2.484 11.427c.022.105.032.21.03.314.1.29.153.602.153.927v12.886a2.85 2.85 0 0 1-2.845 2.857 2.85 2.85 0 0 1-2.845-2.857l-.001-12.474-2.453.008c0 .16-.013.32-.04.483l-2.147 12.705a2.847 2.847 0 0 1-3.281 2.339 2.855 2.855 0 0 1-2.33-3.294l2.125-12.578a97.774 97.774 0 0 0-.085-.703l-1.618-10.4c-.158-.742 0-2.837 1.842-3.178l4.29-.87 5.607-4.476.105-4.374-5.083 3.004c-.251 1.94-1.323 3.715-3.055 4.713-1.692.975-3.648.998-5.328.242L23.977 26.68c.162.224.256.5.256.799v3.406c0 .762-.615 1.38-1.375 1.38h-.483c-.76 0-1.375-.618-1.375-1.38V27.48c0-.562.335-1.045.815-1.26 2.96-1.767 6.646-3.952 11.06-6.555a6.688 6.688 0 0 1-1.636-2.027c-1.687-3.192-.656-7.16 2.302-8.864 2.958-1.704 6.723-.5 8.41 2.691zM24.694 47.176a2.64 2.64 0 0 1 2.634 2.645 2.64 2.64 0 0 1-2.634 2.644 2.64 2.64 0 0 1-2.634-2.644 2.64 2.64 0 0 1 2.634-2.645zm26.556-36.61-.125.075.21 6.052 1.184-.849-1.269-5.277z" fill="#FFF"/>
    </g>
</svg>
