<svg width="206" height="54" viewBox="0 0 206 54" xmlns="http://www.w3.org/2000/svg">
    <g fill="none" fill-rule="evenodd">
        <path d="M89.587 16.872c1.77-.344 3.452-.258 5.002.254a8.576 8.576 0 0 1 3.94 2.688c1.06 1.267 1.78 2.851 2.14 4.709.058.294.117.721.177 1.27l.02.174-14.003 2.722c.49 1.112 1.282 1.935 2.356 2.449 1.148.549 2.487.68 3.983.39 1.907-.371 3.376-1.317 4.365-2.81l.113-.172 3.04 2.372-.078.142c-.63 1.14-1.536 2.097-2.693 2.843-1.15.741-2.524 1.27-4.084 1.573-1.991.388-3.849.331-5.52-.168-1.679-.499-3.09-1.392-4.197-2.653-1.106-1.257-1.844-2.805-2.192-4.599-.344-1.77-.25-3.466.28-5.043a8.834 8.834 0 0 1 2.728-3.999c1.277-1.073 2.832-1.794 4.623-2.142zm-7.308-5.47.072 4.14-7.93.138.353 20.166-4.823.084-.352-20.166-7.93.139-.072-4.14 20.682-.36zm11.558 9.719c-1.028-.6-2.214-.775-3.525-.52-1.29.25-2.32.851-3.062 1.785-.7.88-1.05 1.94-1.043 3.153l9.73-1.892c-.425-1.11-1.13-1.96-2.1-2.526zm17.908-.894c1.311-.255 2.497-.08 3.525.52.97.566 1.675 1.416 2.1 2.526l-9.73 1.892c-.006-1.214.344-2.273 1.043-3.153.742-.934 1.772-1.535 3.062-1.785zm7.637 13.302c1.157-.746 2.063-1.702 2.693-2.843l.079-.142-3.04-2.372-.114.171c-.989 1.494-2.457 2.44-4.365 2.81-1.496.29-2.835.16-3.982-.39-1.074-.513-1.867-1.336-2.357-2.448l14.003-2.722-.02-.174c-.06-.549-.118-.976-.176-1.27-.36-1.858-1.08-3.442-2.14-4.71a8.576 8.576 0 0 0-3.94-2.687c-1.55-.513-3.233-.598-5.003-.254-1.79.348-3.346 1.069-4.622 2.142a8.834 8.834 0 0 0-2.728 3.999c-.53 1.577-.625 3.274-.28 5.043.348 1.794 1.085 3.341 2.191 4.599 1.107 1.26 2.519 2.154 4.198 2.653 1.67.499 3.528.555 5.52.168 1.56-.303 2.933-.832 4.083-1.573zm23.544-2.136a6.517 6.517 0 0 0 1.045-3.714c-.028-1.59-.474-2.867-1.327-3.796a7.73 7.73 0 0 0-3.032-2.032c-1.153-.426-2.641-.835-4.422-1.212-1.293-.294-2.328-.562-3.076-.797-.73-.23-1.34-.55-1.815-.956-.458-.39-.686-.888-.697-1.521-.016-.922.364-1.649 1.162-2.224.808-.58 2.083-.89 3.79-.92 1.048-.019 2.15.12 3.273.414a13.73 13.73 0 0 1 3.26 1.326l.191.107 1.476-3.826-.13-.084c-1.05-.673-2.309-1.188-3.743-1.532a17.447 17.447 0 0 0-4.364-.477c-2.112.037-3.92.395-5.374 1.067-1.462.675-2.567 1.587-3.283 2.707a6.598 6.598 0 0 0-1.043 3.73c.028 1.614.475 2.907 1.328 3.846a7.494 7.494 0 0 0 3.016 2.035c1.142.415 2.647.828 4.472 1.227 1.299.296 2.334.564 3.076.797.727.229 1.337.556 1.813.972.46.403.688.907.7 1.539.015.874-.375 1.567-1.193 2.119-.833.56-2.134.86-3.865.89a12.974 12.974 0 0 1-4.24-.65c-1.406-.456-2.612-1.063-3.582-1.804l-.195-.148-1.628 3.833.108.09c1.033.863 2.443 1.552 4.19 2.051 1.74.497 3.562.732 5.418.7 2.112-.037 3.926-.396 5.392-1.067 1.474-.676 2.584-1.581 3.3-2.69zm11.545-15.17a7.272 7.272 0 0 0-2.332 1.489l-.156-8.963-4.632 1.253.429 24.57 4.652-.082-.164-9.418c-.03-1.718.388-3.056 1.245-3.975.854-.918 2.053-1.397 3.565-1.424 1.328-.023 2.37.347 3.094 1.1.728.756 1.111 1.919 1.138 3.458l.176 10.101 4.652-.08-.186-10.65c-.047-2.683-.803-4.729-2.249-6.08-1.445-1.349-3.364-2.012-5.705-1.97-1.294.022-2.48.248-3.527.672zm25.287 13.992c-1.512.026-2.78-.462-3.769-1.45-.99-.987-1.508-2.326-1.537-3.978-.03-1.65.442-3.006 1.398-4.028.953-1.023 2.204-1.554 3.716-1.58 1.512-.027 2.785.461 3.787 1.45 1.002.988 1.525 2.326 1.554 3.976.029 1.65-.447 3.006-1.415 4.029-.965 1.022-2.221 1.554-3.734 1.58zm4.874-13.909c-1.518-.783-3.246-1.163-5.136-1.13-1.868.032-3.57.473-5.06 1.308-1.49.836-2.662 1.996-3.483 3.447-.82 1.45-1.22 3.111-1.188 4.938.032 1.828.49 3.48 1.36 4.91a8.936 8.936 0 0 0 3.602 3.342c1.515.783 3.232 1.163 5.102 1.13 1.892-.033 3.605-.472 5.093-1.308a8.943 8.943 0 0 0 3.484-3.466c.82-1.46 1.219-3.127 1.187-4.954-.032-1.826-.489-3.472-1.36-4.893-.87-1.422-2.083-2.54-3.6-3.324zm18.883 12.762-.198.16c-.593.483-1.354.736-2.263.752-.761.014-1.35-.192-1.752-.61-.405-.42-.617-1.058-.632-1.894l-.148-8.491 4.888-.086-.066-3.797-4.888.085-.106-6.075-4.632 1.252.086 4.904-3.008.053.066 3.797 3.008-.052.15 8.594c.036 2.05.635 3.627 1.781 4.687 1.144 1.06 2.762 1.577 4.809 1.542a8.454 8.454 0 0 0 2.319-.356c.736-.223 1.368-.557 1.88-.991l.106-.09-1.4-3.384zM23.615 34.22c.044.072.08.144.107.218-.313.448-.86.788-1.518.885-1.122.166-2.14-.436-2.278-1.345.21-.178.471-.329.778-.439 1.126-.402 2.429-.098 2.911.681zm-8.386-2.34c.77.34 1.352.898 1.641 1.502-.452.849-1.654 1.157-2.759.684-.994-.425-1.585-1.344-1.473-2.188.655-.39 1.642-.417 2.591.002zm12.722-.628c-.167.777-1.026 1.484-1.85 1.57-.913.094-2.264-.397-2.38-1.363a.298.298 0 0 1 .351-.333c1.056.218 2.433.063 3.514-.221a.297.297 0 0 1 .365.347zM17.18 30.4l.067.013c.951.296 2.566.632 3.703.626.202 0 .353.198.284.387-.69 1.893-4.204 1.367-4.377-.717a.291.291 0 0 1 .259-.308l.064-.001zm-.6-26.897c9.157-.16 16.71 7.134 16.87 16.292a16.512 16.512 0 0 1-3.52 10.506c-1.147.662-1.937-.95-4.173-.805-1.71.111-1.979 1.874-3.663 1.393-1.259-.36-.982-1.395-2.624-1.774-.875-.2-1.683.141-2.262.539-1.195.82-1.916.106-2.565-.814l-.078-.11-.091-.134-.095-.14-.082-.122-.076-.114c-.357-.53-.719-1.032-1.155-1.274-.355-.197-.829-.26-1.335-.29l-.22-.01-.168-.006-.127-.005-.128-.003-.169-.006-.08-.003-.161-.007-.078-.005c-1.115-.065-2.09-.305-2.027-1.743.03-.702-.108-1.57-.742-2.205-1.191-1.19-1.922-.408-2.894-1.285-1.3-1.172.052-2.335-.76-3.845-1.064-1.975-2.854-1.787-2.893-3.117C3.563 8.15 9.514 3.626 16.578 3.503zm-6.052 23.765c1.195.797 2.3 1.41 3.609 2a.303.303 0 0 1 .141.421c-1.144 2.052-5.316-.261-4.182-2.318a.303.303 0 0 1 .432-.103zm-2.795.456c.858.584 1.358 1.434 1.376 2.197-.658.542-1.75.528-2.638-.09-.986-.687-1.361-1.87-.88-2.703.664-.074 1.447.123 2.142.596zm13.973-.13a1.774 1.774 0 0 0-.584.253c.03.654.707 1.156 1.515 1.122.474-.02.887-.221 1.142-.515a.844.844 0 0 0-.06-.162c-.284-.588-1.185-.9-2.013-.699zm20.854-1.366a29.277 29.277 0 0 1-1.778 1.945l-7.342.128c.31-.624.586-1.268.825-1.928zM14.85 25.9c-.087.658.373 1.374 1.149 1.706.861.368 1.798.128 2.15-.534-.225-.47-.678-.906-1.278-1.17-.74-.327-1.51-.306-2.021-.002zm-9.436-3.472c.597.968 1.738 2.159 2.493 2.809.158.135.14.392-.045.487-1.858.958-4.167-1.743-2.927-3.332.124-.16.372-.135.479.036zm4.914-.007-.176.012c-.374.649-.081 1.571.687 2.107.692.481 1.544.492 2.056.07-.013-.595-.403-1.258-1.072-1.713a2.68 2.68 0 0 0-1.313-.472l-.182-.004zm-9.025-.568c.916-.003 1.865.94 2.12 2.107.069.319.08.62.04.892-.843.366-1.894-.178-2.347-1.218-.267-.61-.268-1.253-.054-1.756.077-.016.157-.024.24-.025zm44.713-.789a29.018 29.018 0 0 1-1.116 1.933l-9.797.171c.106-.63.18-1.269.22-1.917zM6.459 18.083a.97.97 0 0 0-.187.02c-.165.393-.161.895.049 1.369.357.809 1.178 1.229 1.834.94a1.94 1.94 0 0 0-.035-.695c-.203-.909-.946-1.64-1.66-1.634zm-4.447-1.355c.332 1.068.93 2.319 1.674 3.098a.298.298 0 0 1-.097.474c-.88.414-2.012-.472-2.416-1.297-.364-.744-.22-1.847.35-2.4a.297.297 0 0 1 .489.125zm46.09-.804a28.798 28.798 0 0 1-.654 1.925l-12.196.213a18.489 18.489 0 0 0-.308-1.908zm1.028-5.121c-.07.645-.158 1.285-.27 1.918l-14.914.26a18.416 18.416 0 0 0-.917-1.897z" fill="#FFF"/>
        <path d="m11.08 39.097.035 2.04a.305.305 0 0 0 .095.215 14.037 14.037 0 0 1 4.432 9.992l.038 2.182 3.542-.062-.038-2.182a14.035 14.035 0 0 1 4.08-10.14.302.302 0 0 0 .087-.218l-.035-2.04a18.45 18.45 0 0 1-6.1 1.147 18.452 18.452 0 0 1-6.136-.934" fill="#FB6100"/>
    </g>
</svg>
