<svg width="189" height="48" viewBox="0 0 189 48" xmlns="http://www.w3.org/2000/svg">
    <g fill="none" fill-rule="evenodd">
        <path d="M82.664 14.47c1.634-.288 3.18-.182 4.597.314a7.89 7.89 0 0 1 3.582 2.536c.954 1.182 1.591 2.651 1.893 4.365.048.272.096.666.142 1.172l.016.16-12.925 2.279c.433 1.03 1.149 1.8 2.128 2.29 1.047.524 2.277.666 3.657.423 1.76-.31 3.127-1.157 4.06-2.515l.108-.156 2.758 2.231-.074.13c-.598 1.039-1.447 1.904-2.523 2.571-1.07.663-2.342 1.128-3.782 1.382-1.838.324-3.545.242-5.075-.243-1.536-.486-2.82-1.33-3.818-2.508-.997-1.175-1.65-2.61-1.943-4.266-.288-1.633-.173-3.192.34-4.634a8.127 8.127 0 0 1 2.573-3.635c1.191-.967 2.633-1.605 4.286-1.896zM76.03 9.321v3.81h-7.296v18.555h-4.438V13.13H57V9.321h19.03zm10.476 9.125c-.936-.568-2.024-.748-3.235-.535-1.19.21-2.148.746-2.845 1.594-.657.798-.996 1.767-1.01 2.883l8.98-1.584c-.372-1.028-1.008-1.821-1.89-2.358zm16.487-.535c1.21-.213 2.298-.033 3.234.535.883.537 1.518 1.33 1.891 2.358l-8.98 1.584c.014-1.116.353-2.085 1.01-2.883.697-.848 1.654-1.384 2.845-1.594zm6.812 12.36c1.075-.668 1.924-1.533 2.522-2.573l.075-.129-2.758-2.231-.108.156c-.933 1.358-2.3 2.204-4.06 2.515-1.38.243-2.61.101-3.657-.423-.98-.49-1.695-1.26-2.128-2.29l12.924-2.28-.015-.159c-.046-.506-.094-.9-.142-1.172-.302-1.714-.94-3.183-1.893-4.365a7.89 7.89 0 0 0-3.582-2.536c-1.417-.496-2.963-.602-4.597-.314-1.653.291-3.095.93-4.286 1.896a8.127 8.127 0 0 0-2.574 3.635c-.513 1.442-.627 3.001-.339 4.634.292 1.656.945 3.091 1.943 4.266.997 1.177 2.282 2.022 3.818 2.508 1.53.485 3.237.567 5.075.243 1.44-.254 2.712-.719 3.782-1.382zm21.691-1.588a5.996 5.996 0 0 0 1.02-3.4c0-1.462-.39-2.644-1.16-3.512a7.11 7.11 0 0 0-2.756-1.918c-1.053-.41-2.415-.81-4.047-1.186-1.186-.291-2.133-.555-2.818-.783-.666-.222-1.222-.527-1.653-.908-.415-.367-.617-.828-.617-1.41 0-.848.36-1.511 1.104-2.027.753-.521 1.93-.786 3.501-.786.965 0 1.976.146 3.004.434 1.03.288 2.032.716 2.978 1.271l.174.103 1.42-3.496-.12-.08c-.954-.636-2.104-1.13-3.417-1.47a16.05 16.05 0 0 0-4.007-.508c-1.944 0-3.612.3-4.96.895-1.357.598-2.387 1.419-3.064 2.438a6.07 6.07 0 0 0-1.02 3.415c0 1.484.39 2.68 1.16 3.558a6.894 6.894 0 0 0 2.742 1.92c1.044.4 2.422.805 4.094 1.201 1.19.293 2.138.556 2.817.782.665.223 1.221.533 1.652.923.416.379.619.846.619 1.428 0 .804-.37 1.435-1.132 1.93-.775.502-1.976.757-3.569.757-1.296 0-2.604-.224-3.89-.667-1.286-.442-2.385-1.02-3.266-1.717l-.176-.14-1.56 3.5.098.086c.936.81 2.222 1.466 3.822 1.953 1.591.485 3.264.731 4.972.731 1.944 0 3.618-.301 4.977-.895 1.367-.598 2.403-1.413 3.078-2.422zm10.863-13.768a6.69 6.69 0 0 0-2.169 1.332V8l-4.28 1.078v22.607h4.28V23.02c0-1.58.407-2.805 1.21-3.637.8-.83 1.91-1.252 3.301-1.252 1.223 0 2.175.357 2.829 1.06.658.709.991 1.785.991 3.2v9.295h4.28v-9.798c0-2.469-.663-4.363-1.97-5.63-1.308-1.263-3.063-1.904-5.217-1.904-1.19 0-2.286.19-3.255.562zm23.036 13.276c-1.39 0-2.55-.469-3.443-1.394-.896-.924-1.35-2.164-1.35-3.683 0-1.519.454-2.759 1.35-3.684.893-.925 2.053-1.394 3.443-1.394 1.391 0 2.555.47 3.46 1.395.907.925 1.366 2.165 1.366 3.683 0 1.518-.46 2.758-1.366 3.683-.904.925-2.068 1.394-3.46 1.394zm4.707-12.716c-1.384-.744-2.968-1.122-4.707-1.122-1.718 0-3.291.378-4.674 1.122a8.267 8.267 0 0 0-3.26 3.116c-.778 1.32-1.172 2.842-1.172 4.523 0 1.68.394 3.208 1.172 4.538a8.222 8.222 0 0 0 3.26 3.132c1.38.744 2.954 1.121 4.674 1.121 1.741 0 3.324-.377 4.707-1.121a8.228 8.228 0 0 0 3.26-3.132c.777-1.331 1.171-2.858 1.171-4.538 0-1.68-.394-3.202-1.172-4.523a8.27 8.27 0 0 0-3.26-3.116zm17.165 12.043-.185.144c-.554.435-1.258.655-2.094.655-.7 0-1.239-.198-1.602-.589-.365-.393-.55-.983-.55-1.752v-7.814h4.497v-3.494h-4.497v-5.59l-4.281 1.078v4.512h-2.768v3.494h2.768v7.908c0 1.886.526 3.347 1.563 4.34 1.036.993 2.516 1.495 4.399 1.495.747 0 1.466-.097 2.139-.29.68-.193 1.267-.49 1.745-.88l.099-.082-1.233-3.135zM21.701 29.369c.04.066.071.133.095.201-.295.407-.804.711-1.411.79-1.034.135-1.962-.435-2.073-1.274.196-.16.438-.295.722-.39 1.042-.352 2.236-.052 2.667.673zm-7.676-2.287c.703.323 1.228.847 1.485 1.407-.43.774-1.54 1.038-2.549.585-.907-.407-1.436-1.261-1.32-2.036.61-.348 1.517-.357 2.384.044zm11.712-.375c-.166.713-.968 1.35-1.727 1.415-.841.072-2.076-.4-2.167-1.291a.275.275 0 0 1 .328-.301c.967.217 2.237.096 3.236-.148a.273.273 0 0 1 .33.325zm-9.894-.956.06.013c.87.287 2.35.623 3.397.636.185.002.322.187.255.36-.665 1.73-3.89 1.19-4.015-.73a.268.268 0 0 1 .243-.279h.06zM15.72 1C24.148 1 30.98 7.83 30.98 16.257c0 3.642-1.278 6.985-3.408 9.608-1.065.59-1.765-.904-3.825-.807-1.575.074-1.85 1.692-3.391 1.222-.448-.137-.681-.363-.887-.612l-.174-.216c-.264-.328-.573-.658-1.325-.846-.801-.199-1.55.103-2.09.46-1.108.732-1.759.07-2.34-.782l-.076-.112-.081-.123-.085-.131-.073-.114-.069-.106c-.32-.493-.644-.96-1.042-1.19-.323-.187-.758-.253-1.224-.288l-.2-.013-.156-.008-.117-.007-.117-.005-.155-.008-.075-.004-.147-.01-.072-.005c-1.024-.078-1.917-.314-1.836-1.636.04-.645-.074-1.445-.648-2.04-1.076-1.114-1.76-.406-2.64-1.228-1.179-1.1.085-2.147-.638-3.549-.947-1.834-2.596-1.69-2.612-2.915C3.674 5.067 9.221 1 15.721 1zM9.773 22.764a22.268 22.268 0 0 0 3.288 1.898c.145.069.204.25.123.389-1.085 1.868-4.886-.326-3.81-2.2.08-.14.267-.179.4-.087zm-2.578.374c.78.55 1.227 1.341 1.23 2.043-.613.488-1.618.457-2.424-.125-.896-.648-1.223-1.742-.767-2.5.612-.058 1.329.136 1.96.582zm12.856.104c-.209.047-.391.124-.542.224.017.602.632 1.075 1.376 1.056.436-.01.819-.189 1.058-.455a.777.777 0 0 0-.052-.15c-.252-.546-1.076-.847-1.84-.675zm19.204-.921c-.53.612-1.085 1.199-1.667 1.76h-6.756a16.9 16.9 0 0 0 .79-1.76zm-25.482-.747c-.09.604.321 1.27 1.03 1.588.786.353 1.652.146 1.986-.457-.2-.436-.61-.844-1.158-1.097-.675-.312-1.383-.305-1.858-.034zM5.149 18.23c.534.9 1.564 2.014 2.248 2.624.143.127.122.363-.05.447-1.724.852-3.804-1.67-2.638-3.112.117-.144.345-.118.44.041zm4.52.073-.162.008c-.355.59-.1 1.444.599 1.949.628.454 1.411.478 1.89.097-.003-.547-.351-1.163-.96-1.593a2.466 2.466 0 0 0-1.2-.454l-.167-.007zm-8.293-.668c.843.012 1.7.895 1.917 1.973.058.294.063.572.022.82-.781.324-1.739-.194-2.14-1.158-.234-.564-.225-1.157-.02-1.616.07-.013.144-.02.221-.019zm41.143-.008a26.696 26.696 0 0 1-1.057 1.76h-9.015c.107-.577.185-1.164.232-1.76zM6.179 14.25a.893.893 0 0 0-.173.015c-.157.36-.162.82.024 1.26.315.75 1.064 1.15 1.672.895a1.784 1.784 0 0 0-.021-.64c-.173-.84-.844-1.524-1.502-1.53zm-4.07-1.317c.289.987.819 2.147 1.49 2.876a.275.275 0 0 1-.095.434c-.817.367-1.844-.466-2.202-1.231-.323-.69-.173-1.703.36-2.203a.273.273 0 0 1 .448.124zm42.41 0c-.189.597-.403 1.182-.632 1.76H32.664a17.01 17.01 0 0 0-.252-1.76zm1.028-4.695a26.86 26.86 0 0 1-.28 1.76H31.545a16.943 16.943 0 0 0-.813-1.76z" fill="#FFF"/>
        <path d="M10.092 33.653v1.877c0 .075.03.147.084.2a12.914 12.914 0 0 1 3.916 9.262V47h3.26v-2.008c0-3.49 1.411-6.831 3.915-9.262a.278.278 0 0 0 .084-.2v-1.877a16.975 16.975 0 0 1-5.63.958c-1.973 0-3.867-.34-5.629-.958" fill="#FB6100"/>
    </g>
</svg>
