<svg width="95" height="18" viewBox="0 0 95 18" xmlns="http://www.w3.org/2000/svg">
    <path d="M18.49 4.661c1.176-.207 2.29-.131 3.311.226a5.684 5.684 0 0 1 2.58 1.827c.688.852 1.147 1.91 1.365 3.145.034.196.068.48.102.845l.01.115-9.31 1.642a3.158 3.158 0 0 0 1.533 1.65c.754.377 1.64.48 2.635.304 1.268-.224 2.252-.833 2.925-1.812l.077-.112 1.987 1.607-.053.093a5.264 5.264 0 0 1-1.818 1.853c-.77.478-1.687.813-2.725.996-1.324.233-2.554.174-3.656-.176-1.106-.35-2.032-.958-2.75-1.807-.719-.846-1.19-1.88-1.4-3.073-.208-1.176-.125-2.3.245-3.338.37-1.04.993-1.921 1.853-2.619.859-.696 1.898-1.156 3.089-1.366zM13.71.952v2.744H8.453v13.368H5.257V3.696H0V.952h13.71zm7.547 6.574c-.674-.41-1.458-.54-2.33-.386-.858.152-1.548.538-2.05 1.148-.473.575-.718 1.273-.727 2.077l6.47-1.14c-.27-.741-.727-1.313-1.363-1.7zm11.878-.386c.872-.153 1.656-.023 2.33.386.636.386 1.094.958 1.362 1.699l-6.47 1.14c.01-.804.255-1.502.728-2.077.502-.61 1.192-.996 2.05-1.148zm4.907 8.904a5.264 5.264 0 0 0 1.818-1.853l.053-.093-1.987-1.607-.077.112c-.673.979-1.657 1.588-2.925 1.812-.995.175-1.881.073-2.635-.304a3.158 3.158 0 0 1-1.533-1.65l9.311-1.642-.01-.115a11.042 11.042 0 0 0-.103-.845c-.218-1.235-.677-2.293-1.364-3.145a5.684 5.684 0 0 0-2.58-1.827c-1.022-.357-2.135-.433-3.312-.226-1.191.21-2.23.67-3.088 1.366a5.855 5.855 0 0 0-1.854 2.619c-.37 1.039-.452 2.162-.245 3.338.21 1.193.681 2.227 1.4 3.073.718.849 1.644 1.457 2.75 1.807 1.102.35 2.332.41 3.657.176 1.037-.183 1.954-.518 2.724-.996zm15.627-1.143a4.32 4.32 0 0 0 .736-2.45c0-1.053-.281-1.904-.836-2.53a5.123 5.123 0 0 0-1.986-1.382c-.759-.295-1.74-.583-2.916-.854a27.64 27.64 0 0 1-2.03-.564c-.48-.16-.88-.38-1.19-.655-.3-.264-.445-.596-.445-1.015 0-.611.26-1.089.796-1.46.542-.376 1.39-.567 2.522-.567.695 0 1.423.105 2.164.313a9.1 9.1 0 0 1 2.145.916l.126.074 1.022-2.52-.086-.056c-.687-.458-1.516-.815-2.462-1.059a11.564 11.564 0 0 0-2.887-.367c-1.4 0-2.602.217-3.573.645-.977.43-1.72 1.022-2.207 1.757a4.373 4.373 0 0 0-.735 2.46c0 1.069.282 1.931.836 2.563a4.967 4.967 0 0 0 1.975 1.384c.752.288 1.745.58 2.95.865a28 28 0 0 1 2.029.563c.48.16.88.384 1.19.665.3.273.446.61.446 1.029 0 .579-.267 1.034-.815 1.39-.558.362-1.424.546-2.571.546a8.599 8.599 0 0 1-2.803-.48c-.927-.32-1.718-.736-2.353-1.238l-.127-.1-1.124 2.521.07.061c.676.584 1.602 1.057 2.754 1.408 1.147.35 2.352.526 3.583.526 1.4 0 2.606-.216 3.585-.645.985-.43 1.73-1.017 2.217-1.744zm7.826-9.92a4.82 4.82 0 0 0-1.562.96V0L56.85.777v16.287h3.084V10.82c0-1.139.293-2.02.871-2.62.577-.598 1.377-.902 2.38-.902.88 0 1.566.258 2.037.764.474.51.714 1.285.714 2.305v6.697h3.084v-7.06c0-1.778-.478-3.142-1.42-4.055-.942-.91-2.207-1.372-3.759-1.372-.857 0-1.646.136-2.345.405zm16.597 9.565c-1.003 0-1.838-.338-2.481-1.004-.646-.666-.973-1.56-.973-2.654 0-1.094.327-1.987.973-2.653.644-.667 1.479-1.004 2.48-1.004 1.003 0 1.841.338 2.493 1.004.653.667.984 1.56.984 2.653 0 1.095-.33 1.987-.984 2.654-.65.666-1.49 1.004-2.492 1.004zm3.39-9.16c-.997-.537-2.137-.81-3.39-.81-1.239 0-2.372.273-3.368.81a5.956 5.956 0 0 0-2.349 2.244c-.56.951-.844 2.047-.844 3.258 0 1.212.284 2.312.844 3.27.56.96 1.351 1.72 2.349 2.256.995.537 2.128.808 3.368.808 1.254 0 2.394-.271 3.39-.808a5.928 5.928 0 0 0 2.349-2.256c.56-.96.844-2.059.844-3.27 0-1.21-.284-2.306-.844-3.258a5.958 5.958 0 0 0-2.349-2.244zM93.85 14.06l-.134.104c-.398.313-.906.472-1.508.472-.505 0-.893-.143-1.154-.424-.263-.284-.397-.709-.397-1.263V7.321h3.24V4.804h-3.24V.777l-3.084.776v3.25h-1.994v2.518h1.994v5.697c0 1.36.38 2.411 1.127 3.127.746.715 1.812 1.077 3.168 1.077.538 0 1.057-.07 1.541-.208.49-.14.913-.354 1.258-.636l.07-.058-.887-2.259z" fill="#262626" fill-rule="evenodd"/>
</svg>
