<svg width="144" height="28" viewBox="0 0 144 28" xmlns="http://www.w3.org/2000/svg">
    <path d="M28.587 8.872c1.77-.344 3.452-.258 5.002.254a8.576 8.576 0 0 1 3.94 2.688c1.06 1.267 1.78 2.851 2.14 4.709.058.294.117.721.177 1.27l.02.174-14.003 2.722c.49 1.112 1.282 1.935 2.356 2.449 1.148.549 2.487.68 3.983.39 1.907-.371 3.376-1.317 4.365-2.81l.113-.172 3.04 2.372-.078.142c-.63 1.14-1.536 2.097-2.693 2.843-1.15.741-2.524 1.27-4.084 1.573-1.991.388-3.849.331-5.52-.168-1.679-.499-3.09-1.392-4.197-2.653-1.106-1.257-1.844-2.805-2.192-4.599-.344-1.77-.25-3.466.28-5.043a8.834 8.834 0 0 1 2.728-3.999c1.277-1.073 2.832-1.794 4.623-2.142zm-7.308-5.47.072 4.14-7.93.138.353 20.166-4.823.084L8.6 7.764l-7.93.139-.072-4.14 20.682-.36zm11.558 9.719c-1.028-.6-2.214-.775-3.525-.52-1.29.25-2.32.851-3.062 1.785-.7.88-1.05 1.94-1.043 3.153l9.73-1.892c-.425-1.11-1.13-1.96-2.1-2.526zm17.908-.894c1.311-.255 2.497-.08 3.525.52.97.566 1.675 1.416 2.1 2.526l-9.73 1.892c-.006-1.214.344-2.273 1.043-3.153.742-.934 1.772-1.535 3.062-1.785zm7.637 13.302c1.157-.746 2.063-1.702 2.693-2.843l.079-.142-3.04-2.372-.114.171c-.989 1.494-2.457 2.44-4.365 2.81-1.496.29-2.835.16-3.982-.39-1.074-.513-1.867-1.336-2.357-2.448L61.3 17.593l-.02-.174c-.06-.549-.118-.976-.176-1.27-.36-1.858-1.08-3.442-2.14-4.71a8.576 8.576 0 0 0-3.94-2.687c-1.55-.513-3.233-.598-5.003-.254-1.79.348-3.346 1.069-4.622 2.142a8.834 8.834 0 0 0-2.728 3.999c-.53 1.577-.625 3.274-.28 5.043.348 1.794 1.085 3.341 2.191 4.599 1.107 1.26 2.519 2.154 4.198 2.653 1.67.499 3.528.555 5.52.168 1.56-.303 2.933-.832 4.083-1.573zm23.544-2.136a6.517 6.517 0 0 0 1.045-3.714c-.028-1.59-.474-2.867-1.327-3.796a7.73 7.73 0 0 0-3.032-2.032c-1.153-.426-2.641-.835-4.422-1.212-1.293-.294-2.328-.562-3.076-.797-.73-.23-1.34-.55-1.815-.956-.458-.39-.686-.888-.697-1.521-.016-.922.364-1.649 1.162-2.224.808-.58 2.083-.89 3.79-.92 1.048-.019 2.15.12 3.273.414a13.73 13.73 0 0 1 3.26 1.326l.191.107 1.476-3.826-.13-.084c-1.05-.673-2.309-1.188-3.743-1.532a17.447 17.447 0 0 0-4.364-.477c-2.112.037-3.92.395-5.374 1.067-1.462.675-2.567 1.587-3.283 2.707a6.598 6.598 0 0 0-1.043 3.73c.028 1.614.475 2.907 1.328 3.846a7.494 7.494 0 0 0 3.016 2.035c1.142.415 2.647.828 4.472 1.227 1.299.296 2.334.564 3.076.797.727.229 1.337.556 1.813.972.46.403.688.907.7 1.539.015.874-.375 1.567-1.193 2.119-.833.56-2.134.86-3.865.89a12.974 12.974 0 0 1-4.24-.65c-1.406-.456-2.612-1.063-3.582-1.804l-.195-.148-1.628 3.833.108.09c1.033.863 2.443 1.552 4.19 2.051 1.74.497 3.562.732 5.418.7 2.112-.037 3.926-.396 5.392-1.067 1.474-.676 2.584-1.581 3.3-2.69zm11.545-15.17a7.272 7.272 0 0 0-2.332 1.489L90.983.749 86.35 2.002l.429 24.57 4.652-.082-.164-9.418c-.03-1.718.388-3.056 1.245-3.975.854-.918 2.053-1.397 3.565-1.424 1.328-.023 2.37.347 3.094 1.1.728.756 1.111 1.919 1.138 3.458l.176 10.101 4.652-.08-.186-10.65c-.047-2.683-.803-4.729-2.249-6.08-1.445-1.349-3.364-2.012-5.705-1.97-1.294.022-2.48.248-3.527.672zm25.287 13.992c-1.512.026-2.78-.462-3.769-1.45-.99-.987-1.508-2.326-1.537-3.978-.03-1.65.442-3.006 1.398-4.028.953-1.023 2.204-1.554 3.716-1.58 1.512-.027 2.785.461 3.787 1.45 1.002.988 1.525 2.326 1.554 3.976.029 1.65-.447 3.006-1.415 4.029-.965 1.022-2.221 1.554-3.734 1.58zm4.874-13.909c-1.518-.783-3.246-1.163-5.136-1.13-1.868.032-3.57.473-5.06 1.308-1.49.836-2.662 1.996-3.483 3.447-.82 1.45-1.22 3.111-1.188 4.938.032 1.828.49 3.48 1.36 4.91a8.936 8.936 0 0 0 3.602 3.342c1.515.783 3.232 1.163 5.102 1.13 1.892-.033 3.605-.472 5.093-1.308a8.943 8.943 0 0 0 3.484-3.466c.82-1.46 1.219-3.127 1.187-4.954-.032-1.826-.489-3.472-1.36-4.893-.87-1.422-2.083-2.54-3.6-3.324zm18.883 12.762-.198.16c-.593.483-1.354.736-2.263.752-.761.014-1.35-.192-1.752-.61-.405-.42-.617-1.058-.632-1.894l-.148-8.491 4.888-.086-.066-3.797-4.888.085-.106-6.075-4.632 1.252.086 4.904-3.008.053.066 3.797 3.008-.052.15 8.594c.036 2.05.635 3.627 1.781 4.687 1.144 1.06 2.762 1.577 4.809 1.542a8.454 8.454 0 0 0 2.319-.356c.736-.223 1.368-.557 1.88-.991l.106-.09-1.4-3.384z" fill="#FFF" fill-rule="evenodd"/>
</svg>
