<svg width="132" height="24" viewBox="0 0 132 24" xmlns="http://www.w3.org/2000/svg">
    <path d="M25.664 6.47c1.634-.288 3.18-.182 4.597.314a7.89 7.89 0 0 1 3.582 2.536c.954 1.182 1.591 2.651 1.893 4.365.048.272.096.666.142 1.172l.016.16-12.925 2.279c.433 1.03 1.149 1.8 2.128 2.29 1.047.524 2.277.666 3.657.423 1.76-.31 3.127-1.157 4.06-2.515l.108-.156 2.758 2.231-.074.13c-.598 1.039-1.447 1.904-2.523 2.571-1.07.663-2.342 1.128-3.782 1.382-1.838.324-3.545.242-5.075-.243-1.536-.486-2.82-1.33-3.818-2.508-.997-1.175-1.65-2.61-1.943-4.266-.288-1.633-.173-3.192.34-4.634a8.127 8.127 0 0 1 2.573-3.635c1.191-.967 2.633-1.605 4.286-1.896zM19.03 1.321v3.81h-7.296v18.555H7.296V5.13H0V1.321h19.03zm10.476 9.125c-.936-.568-2.024-.748-3.235-.535-1.19.21-2.148.746-2.845 1.594-.657.798-.996 1.767-1.01 2.883l8.98-1.584c-.372-1.028-1.008-1.821-1.89-2.358zm16.487-.535c1.21-.213 2.298-.033 3.234.535.883.537 1.518 1.33 1.891 2.358l-8.98 1.584c.014-1.116.353-2.085 1.01-2.883.697-.848 1.654-1.384 2.845-1.594zm6.812 12.36c1.075-.668 1.924-1.533 2.522-2.573l.075-.129-2.758-2.231-.108.156c-.933 1.358-2.3 2.204-4.06 2.515-1.38.243-2.61.101-3.657-.423-.98-.49-1.695-1.26-2.128-2.29l12.924-2.28-.015-.159c-.046-.506-.094-.9-.142-1.172-.302-1.714-.94-3.183-1.893-4.365a7.89 7.89 0 0 0-3.582-2.536c-1.417-.496-2.963-.602-4.597-.314-1.653.291-3.095.93-4.286 1.896a8.127 8.127 0 0 0-2.574 3.635c-.513 1.442-.627 3.001-.339 4.634.292 1.656.945 3.091 1.943 4.266.997 1.177 2.282 2.022 3.818 2.508 1.53.485 3.237.567 5.075.243 1.44-.254 2.712-.719 3.782-1.382zm21.691-1.588a5.996 5.996 0 0 0 1.02-3.4c0-1.462-.39-2.644-1.16-3.512a7.11 7.11 0 0 0-2.756-1.918c-1.053-.41-2.415-.81-4.047-1.186-1.186-.291-2.133-.555-2.818-.783-.666-.222-1.222-.527-1.653-.908-.415-.367-.617-.828-.617-1.41 0-.848.36-1.511 1.104-2.027.753-.521 1.93-.786 3.501-.786.965 0 1.976.146 3.004.434 1.03.288 2.032.716 2.978 1.271l.174.103 1.42-3.496-.12-.08c-.954-.636-2.104-1.13-3.417-1.47a16.05 16.05 0 0 0-4.007-.508c-1.944 0-3.612.3-4.96.895-1.357.598-2.387 1.419-3.064 2.438a6.07 6.07 0 0 0-1.02 3.415c0 1.484.39 2.68 1.16 3.558a6.894 6.894 0 0 0 2.742 1.92c1.044.4 2.422.805 4.094 1.201 1.19.293 2.138.556 2.817.782.665.223 1.221.533 1.652.923.416.379.619.846.619 1.428 0 .804-.37 1.435-1.132 1.93-.775.502-1.976.757-3.569.757-1.296 0-2.604-.224-3.89-.667-1.286-.442-2.385-1.02-3.266-1.717l-.176-.14-1.56 3.5.098.086c.936.81 2.222 1.466 3.822 1.953 1.591.485 3.264.731 4.972.731 1.944 0 3.618-.301 4.977-.895 1.367-.598 2.403-1.413 3.078-2.422zM85.359 6.915a6.69 6.69 0 0 0-2.169 1.332V0l-4.28 1.078v22.607h4.28V15.02c0-1.58.407-2.805 1.21-3.637.8-.83 1.91-1.252 3.301-1.252 1.223 0 2.175.357 2.829 1.06.658.709.991 1.785.991 3.2v9.295h4.28v-9.798c0-2.469-.663-4.363-1.97-5.63-1.308-1.263-3.063-1.904-5.217-1.904-1.19 0-2.286.19-3.255.562zm23.036 13.276c-1.39 0-2.55-.469-3.443-1.394-.896-.924-1.35-2.164-1.35-3.683 0-1.519.454-2.759 1.35-3.684.893-.925 2.053-1.394 3.443-1.394 1.391 0 2.555.47 3.46 1.395.907.925 1.366 2.165 1.366 3.683 0 1.518-.46 2.758-1.366 3.683-.904.925-2.068 1.394-3.46 1.394zm4.707-12.716c-1.384-.744-2.968-1.122-4.707-1.122-1.718 0-3.291.378-4.674 1.122a8.267 8.267 0 0 0-3.26 3.116c-.778 1.32-1.172 2.842-1.172 4.523 0 1.68.394 3.208 1.172 4.538a8.222 8.222 0 0 0 3.26 3.132c1.38.744 2.954 1.121 4.674 1.121 1.741 0 3.324-.377 4.707-1.121a8.228 8.228 0 0 0 3.26-3.132c.777-1.331 1.171-2.858 1.171-4.538 0-1.68-.394-3.202-1.172-4.523a8.27 8.27 0 0 0-3.26-3.116zm17.165 12.043-.185.144c-.554.435-1.258.655-2.094.655-.7 0-1.239-.198-1.602-.589-.365-.393-.55-.983-.55-1.752v-7.814h4.497V6.668h-4.497v-5.59l-4.281 1.078v4.512h-2.768v3.494h2.768v7.908c0 1.886.526 3.347 1.563 4.34 1.036.993 2.516 1.495 4.399 1.495.747 0 1.466-.097 2.139-.29.68-.193 1.267-.49 1.745-.88l.099-.082-1.233-3.135z" fill="#FFF" fill-rule="evenodd"/>
</svg>
