<svg id="btn-excel" xmlns="http://www.w3.org/2000/svg" xmlns:xlink="http://www.w3.org/1999/xlink" width="52" height="52" viewBox="0 0 52 52">
  <defs>
    <clipPath id="clip-path">
      <circle id="타원_14" data-name="타원 14" cx="19" cy="19" r="19" transform="translate(1000 242)" fill="#0b5d0f"/>
    </clipPath>
  </defs>
  <circle id="타원_13" data-name="타원 13" cx="26" cy="26" r="26" fill="#354250"/>
  <g id="마스크_그룹_26" data-name="마스크 그룹 26" transform="translate(-993 -235)" clip-path="url(#clip-path)">
    <path id="microsoftexcel" d="M24.791,2.375a1.011,1.011,0,0,1,.755.323,1.011,1.011,0,0,1,.323.755v20.48a1.105,1.105,0,0,1-1.078,1.078H7.545a1.105,1.105,0,0,1-1.078-1.078V20.16H1.078a1.011,1.011,0,0,1-.755-.323A1.011,1.011,0,0,1,0,19.082V8.3a1.011,1.011,0,0,1,.323-.755.989.989,0,0,1,.755-.323H6.467V3.453A1.011,1.011,0,0,1,6.791,2.7a1.011,1.011,0,0,1,.755-.323ZM6.467,15.072,8,17.94H10.3L7.739,13.768l2.522-4.1H8.041l-1.4,2.587-.054.086-.043.1-.69-1.38-.711-1.39H2.792L5.239,13.79,2.565,17.94H4.894Zm8.893,8.321V20.16H8.084v3.234Zm0-4.85V14.5H12.935v4.042Zm0-5.659V8.842H12.935v4.042Zm0-5.659V3.992H8.084V7.225Zm8.893,16.168V20.16H16.977v3.234Zm0-4.85V14.5H16.977v4.042Zm0-5.659V8.842H16.977v4.042Zm0-5.659V3.992H16.977V7.225Z" transform="translate(1004.065 247.307)" fill="#b4becc"/>
  </g>
</svg>
