<svg xmlns="http://www.w3.org/2000/svg" width="24" height="24" viewBox="0 0 24 24">
  <g id="checkbox-checked" transform="translate(-748 -619)">
    <g id="invisible_box" data-name="invisible box" transform="translate(748 619)">
      <rect id="사각형_14" data-name="사각형 14" width="24" height="24" fill="none"/>
    </g>
    <g id="icons_Q2" data-name="icons Q2" transform="translate(750.022 621.022)">
      <path id="패스_12" data-name="패스 12" d="M15.337,23.9,12.3,20.913a1.062,1.062,0,0,1-.1-1.365.961.961,0,0,1,1.517-.1l2.326,2.326,6.37-6.37a1.011,1.011,0,0,1,1.416,1.416L16.753,23.9a.961.961,0,0,1-1.416,0Z" transform="translate(-7.956 -9.538)" fill="#717987"/>
      <path id="패스_13" data-name="패스 13" d="M22.2,6.022V22.2H6.022V6.022H22.2M23.211,4H5.011A1.011,1.011,0,0,0,4,5.011v18.2a1.011,1.011,0,0,0,1.011,1.011h18.2a1.011,1.011,0,0,0,1.011-1.011V5.011A1.011,1.011,0,0,0,23.211,4Z" transform="translate(-4 -4)" fill="#717987"/>
    </g>
  </g>
</svg>
