<svg xmlns="http://www.w3.org/2000/svg" xmlns:xlink="http://www.w3.org/1999/xlink" width="24" height="24" viewBox="0 0 24 24">
  <defs>
    <clipPath id="clip-path">
      <path id="패스_459" data-name="패스 459" d="M0,0H24V24H0Z" transform="translate(1163 40)" fill="#31434e"/>
    </clipPath>
  </defs>
  <g id="ico-solar" transform="translate(-1163 -40)" clip-path="url(#clip-path)">
    <path id="solarpanel" d="M19.7,13.974H14.111L15.264,19.7a.457.457,0,0,1-.139.477.77.77,0,0,1-.5.159H5.722a.73.73,0,0,1-.487-.159.5.5,0,0,1-.149-.477l1.153-5.725H.654a.793.793,0,0,1-.507-.149.473.473,0,0,1-.129-.487L2.542.636A1.129,1.129,0,0,1,2.711.2.37.37,0,0,1,3.019,0H17.112a.648.648,0,0,1,.427.219.843.843,0,0,1,.269.417l2.525,12.7a.471.471,0,0,1-.129.487.8.8,0,0,1-.507.149Zm-3.161-12.7H3.814L1.906,12.7H18.424ZM6.915,7.633l-.556,3.8H3.178l.815-3.8Zm5.247,0,.556,3.8H7.63l.537-3.8h4Zm4.174,0,.835,3.8h-3.18l-.556-3.8h2.9ZM13.256,6.361l-.537-3.816h2.544l.815,3.816Zm-4.89,0L8.9,2.544h2.544l.537,3.816Zm-4.095,0,.815-3.816H7.631L7.094,6.361Z" transform="translate(1164.825 41.833)" fill="#717987"/>
  </g>
</svg>
