<svg xmlns="http://www.w3.org/2000/svg" width="24" height="24" viewBox="0 0 24 24">
  <g id="ico-flow-arrow-20" opacity="0.2">
    <g id="invisible_box" data-name="invisible box">
      <rect id="사각형_394" data-name="사각형 394" width="24" height="24" fill="none"/>
    </g>
    <g id="Q3_icons" data-name="Q3 icons" transform="translate(3.248 3.834)">
      <path id="패스_525" data-name="패스 525" d="M19.208,25.984l6.942-7a1.108,1.108,0,0,0,0-1.633l-6.942-7a1.225,1.225,0,0,0-1.575-.117,1.108,1.108,0,0,0-.117,1.75L22.533,17H10.167a1.167,1.167,0,1,0,0,2.333H22.533L17.517,24.35a1.108,1.108,0,0,0,.117,1.75,1.225,1.225,0,0,0,1.575-.117Z" transform="translate(-9 -10.001)" fill="#e8edf5"/>
    </g>
  </g>
</svg>
