<svg id="ico-setting" xmlns="http://www.w3.org/2000/svg" width="28" height="28" viewBox="0 0 28 28">
  <g id="invisible_box" data-name="invisible box">
    <rect id="사각형_265" data-name="사각형 265" width="28" height="28" fill="none"/>
    <rect id="사각형_266" data-name="사각형 266" width="28" height="28" fill="none"/>
    <rect id="사각형_267" data-name="사각형 267" width="28" height="28" fill="none"/>
  </g>
  <g id="icons_Q2" data-name="icons Q2" transform="translate(1.167 1.167)">
    <path id="패스_414" data-name="패스 414" d="M24.284,17.867l3.208-.875a13.417,13.417,0,0,0,0-4.317L24.284,11.8a1.05,1.05,0,0,1-.642-1.517l1.633-2.917A12.017,12.017,0,0,0,22.3,4.392L19.384,6.025l-.467.117a1.05,1.05,0,0,1-1.05-.758l-.875-3.208a13.417,13.417,0,0,0-4.317,0L11.8,5.384a1.05,1.05,0,0,1-1.05.758l-.467-.117L7.367,4.392A12.017,12.017,0,0,0,4.392,7.367l1.633,2.917A1.05,1.05,0,0,1,5.384,11.8l-3.208.875a13.417,13.417,0,0,0,0,4.317l3.208.875a1.05,1.05,0,0,1,.642,1.517L4.392,22.3a12.017,12.017,0,0,0,2.975,2.975l2.917-1.633.467-.117a1.05,1.05,0,0,1,1.05.758l.875,3.208a13.417,13.417,0,0,0,4.317,0l.875-3.208a1.05,1.05,0,0,1,1.05-.758l.467.117L22.3,25.275A12.017,12.017,0,0,0,25.275,22.3l-1.633-2.917a1.05,1.05,0,0,1,.642-1.517Zm-9.45,2.217a5.25,5.25,0,1,1,5.25-5.25A5.25,5.25,0,0,1,14.834,20.084Z" transform="translate(-2 -2)" fill="#b4becc"/>
  </g>
</svg>
