<svg xmlns="http://www.w3.org/2000/svg" xmlns:xlink="http://www.w3.org/1999/xlink" width="138" height="138" viewBox="0 0 138 138">
  <defs>
    <filter id="사각형_343" x="0" y="0" width="138" height="138" filterUnits="userSpaceOnUse">
      <feOffset dx="5" dy="3" input="SourceAlpha"/>
      <feGaussianBlur stdDeviation="3" result="blur"/>
      <feFlood flood-opacity="0.161"/>
      <feComposite operator="in" in2="blur"/>
      <feComposite in="SourceGraphic"/>
    </filter>
    <clipPath id="clip-path">
      <rect id="사각형_379" data-name="사각형 379" width="66.629" height="65.85" fill="none"/>
    </clipPath>
  </defs>
  <g id="img-pcs" transform="translate(-887 -176)">
    <g transform="matrix(1, 0, 0, 1, 887, 176)" filter="url(#사각형_343)">
      <g id="사각형_343-2" data-name="사각형 343" transform="translate(4 6)" fill="#19232f" stroke="#436479" stroke-width="1">
        <rect width="120" height="120" rx="60" stroke="none"/>
        <rect x="0.5" y="0.5" width="119" height="119" rx="59.5" fill="none"/>
      </g>
    </g>
    <g id="그룹_809" data-name="그룹 809" transform="translate(918 209)">
      <g id="그룹_808" data-name="그룹 808" transform="translate(0 0)" clip-path="url(#clip-path)">
        <path id="패스_491" data-name="패스 491" d="M7.009,19.9a1.259,1.259,0,0,1-1.26-1.26V1.26a1.26,1.26,0,1,1,2.519,0V18.643a1.259,1.259,0,0,1-1.26,1.26" transform="translate(6.933 -0.001)" fill="#31596e"/>
        <path id="패스_492" data-name="패스 492" d="M11.933,4.618H5.63A1.352,1.352,0,0,1,4.278,3.266v-.6A1.354,1.354,0,0,1,5.63,1.309h6.3a1.352,1.352,0,0,1,1.352,1.352v.6a1.351,1.351,0,0,1-1.352,1.352" transform="translate(5.159 1.578)" fill="#57db5d"/>
        <path id="패스_493" data-name="패스 493" d="M11.933,6.546H5.63A1.352,1.352,0,0,1,4.278,5.194v-.6A1.354,1.354,0,0,1,5.63,3.237h6.3a1.352,1.352,0,0,1,1.352,1.352v.6a1.351,1.351,0,0,1-1.352,1.352" transform="translate(5.159 3.903)" fill="#57db5d"/>
        <path id="패스_494" data-name="패스 494" d="M11.933,8.474H5.63A1.352,1.352,0,0,1,4.278,7.122v-.6A1.354,1.354,0,0,1,5.63,5.165h6.3a1.352,1.352,0,0,1,1.352,1.352v.6a1.351,1.351,0,0,1-1.352,1.352" transform="translate(5.159 6.228)" fill="#57db5d"/>
        <path id="패스_495" data-name="패스 495" d="M15.791,19.9a1.259,1.259,0,0,1-1.26-1.26V1.26a1.26,1.26,0,0,1,2.519,0V18.643a1.259,1.259,0,0,1-1.26,1.26" transform="translate(17.525 -0.001)" fill="#31596e"/>
        <path id="패스_496" data-name="패스 496" d="M20.714,4.618h-6.3a1.351,1.351,0,0,1-1.35-1.352v-.6a1.352,1.352,0,0,1,1.35-1.352h6.3a1.352,1.352,0,0,1,1.352,1.352v.6a1.351,1.351,0,0,1-1.352,1.352" transform="translate(15.752 1.578)" fill="#57db5d"/>
        <path id="패스_497" data-name="패스 497" d="M20.714,6.546h-6.3a1.351,1.351,0,0,1-1.35-1.352v-.6a1.352,1.352,0,0,1,1.35-1.352h6.3a1.352,1.352,0,0,1,1.352,1.352v.6a1.351,1.351,0,0,1-1.352,1.352" transform="translate(15.752 3.903)" fill="#57db5d"/>
        <path id="패스_498" data-name="패스 498" d="M20.714,8.474h-6.3a1.351,1.351,0,0,1-1.35-1.352v-.6a1.352,1.352,0,0,1,1.35-1.352h6.3a1.352,1.352,0,0,1,1.352,1.352v.6a1.351,1.351,0,0,1-1.352,1.352" transform="translate(15.752 6.228)" fill="#57db5d"/>
        <path id="패스_499" data-name="패스 499" d="M24.572,19.9a1.259,1.259,0,0,1-1.26-1.26V1.26a1.26,1.26,0,1,1,2.519,0V18.643a1.259,1.259,0,0,1-1.26,1.26" transform="translate(28.115 -0.001)" fill="#31596e"/>
        <path id="패스_500" data-name="패스 500" d="M29.5,4.618h-6.3a1.351,1.351,0,0,1-1.352-1.352v-.6a1.352,1.352,0,0,1,1.352-1.352h6.3a1.352,1.352,0,0,1,1.35,1.352v.6A1.351,1.351,0,0,1,29.5,4.618" transform="translate(26.342 1.578)" fill="#57db5d"/>
        <path id="패스_501" data-name="패스 501" d="M29.5,6.546h-6.3a1.351,1.351,0,0,1-1.352-1.352v-.6a1.352,1.352,0,0,1,1.352-1.352h6.3a1.352,1.352,0,0,1,1.35,1.352v.6A1.351,1.351,0,0,1,29.5,6.546" transform="translate(26.342 3.903)" fill="#57db5d"/>
        <path id="패스_502" data-name="패스 502" d="M29.5,8.474h-6.3a1.351,1.351,0,0,1-1.352-1.352v-.6a1.352,1.352,0,0,1,1.352-1.352h6.3a1.352,1.352,0,0,1,1.35,1.352v.6A1.351,1.351,0,0,1,29.5,8.474" transform="translate(26.342 6.228)" fill="#57db5d"/>
        <rect id="사각형_365" data-name="사각형 365" width="53.993" height="45.685" transform="translate(6.318 20.165)" fill="#718c9b"/>
        <rect id="사각형_366" data-name="사각형 366" width="66.629" height="4.044" transform="translate(0 16.122)" fill="#4a6d7f"/>
        <rect id="사각형_367" data-name="사각형 367" width="38.745" height="24.103" transform="translate(13.942 23.132)" fill="#f4f7fa"/>
        <rect id="사각형_368" data-name="사각형 368" width="36.391" height="22.056" transform="translate(15.12 24.156)" fill="#4a6d7f"/>
        <rect id="사각형_369" data-name="사각형 369" width="2.1" height="19.956" transform="translate(16.433 25.206)" fill="#31596e"/>
        <rect id="사각형_370" data-name="사각형 370" width="2.1" height="19.956" transform="translate(19.951 25.206)" fill="#31596e"/>
        <rect id="사각형_371" data-name="사각형 371" width="2.1" height="19.956" transform="translate(23.468 25.206)" fill="#31596e"/>
        <rect id="사각형_372" data-name="사각형 372" width="2.1" height="19.956" transform="translate(26.986 25.206)" fill="#31596e"/>
        <rect id="사각형_373" data-name="사각형 373" width="2.1" height="19.956" transform="translate(30.505 25.206)" fill="#31596e"/>
        <rect id="사각형_374" data-name="사각형 374" width="2.1" height="19.956" transform="translate(34.024 25.206)" fill="#31596e"/>
        <rect id="사각형_375" data-name="사각형 375" width="2.1" height="19.956" transform="translate(37.542 25.206)" fill="#31596e"/>
        <rect id="사각형_376" data-name="사각형 376" width="2.1" height="19.956" transform="translate(41.061 25.206)" fill="#31596e"/>
        <rect id="사각형_377" data-name="사각형 377" width="2.1" height="19.956" transform="translate(44.58 25.206)" fill="#31596e"/>
        <rect id="사각형_378" data-name="사각형 378" width="2.1" height="19.956" transform="translate(48.098 25.206)" fill="#31596e"/>
        <path id="패스_503" data-name="패스 503" d="M6.035,11.225A1.234,1.234,0,1,1,4.8,9.992a1.234,1.234,0,0,1,1.233,1.233" transform="translate(4.301 12.05)" fill="#31596e"/>
        <path id="패스_504" data-name="패스 504" d="M6.035,29.115A1.234,1.234,0,1,1,4.8,27.882a1.234,1.234,0,0,1,1.233,1.233" transform="translate(4.301 33.626)" fill="#31596e"/>
        <path id="패스_505" data-name="패스 505" d="M27.9,11.225a1.234,1.234,0,1,1-1.233-1.233A1.232,1.232,0,0,1,27.9,11.225" transform="translate(30.669 12.05)" fill="#31596e"/>
        <path id="패스_506" data-name="패스 506" d="M17.011,29.115a1.234,1.234,0,1,1-1.233-1.233,1.232,1.232,0,0,1,1.233,1.233" transform="translate(17.538 33.626)" fill="#31596e"/>
        <path id="패스_507" data-name="패스 507" d="M27.9,29.115a1.234,1.234,0,1,1-1.233-1.233A1.232,1.232,0,0,1,27.9,29.115" transform="translate(30.669 33.626)" fill="#31596e"/>
        <path id="패스_508" data-name="패스 508" d="M6.035,20.322A1.234,1.234,0,1,1,4.8,19.089a1.234,1.234,0,0,1,1.233,1.233" transform="translate(4.301 23.021)" fill="#31596e"/>
        <path id="패스_509" data-name="패스 509" d="M27.9,20.322a1.234,1.234,0,1,1-1.233-1.233A1.232,1.232,0,0,1,27.9,20.322" transform="translate(30.669 23.021)" fill="#31596e"/>
      </g>
    </g>
  </g>
</svg>
