<svg xmlns="http://www.w3.org/2000/svg" xmlns:xlink="http://www.w3.org/1999/xlink" width="138" height="138" viewBox="0 0 138 138">
  <defs>
    <filter id="사각형_344" x="0" y="0" width="138" height="138" filterUnits="userSpaceOnUse">
      <feOffset dx="5" dy="3" input="SourceAlpha"/>
      <feGaussianBlur stdDeviation="3" result="blur"/>
      <feFlood flood-opacity="0.161"/>
      <feComposite operator="in" in2="blur"/>
      <feComposite in="SourceGraphic"/>
    </filter>
    <clipPath id="clip-path">
      <rect id="사각형_380" data-name="사각형 380" width="46.921" height="79.884" fill="none"/>
    </clipPath>
  </defs>
  <g id="img-system" transform="translate(-1183 -176)">
    <g transform="matrix(1, 0, 0, 1, 1183, 176)" filter="url(#사각형_344)">
      <g id="사각형_344-2" data-name="사각형 344" transform="translate(4 6)" fill="#19232f" stroke="#436479" stroke-width="1">
        <rect width="120" height="120" rx="60" stroke="none"/>
        <rect x="0.5" y="0.5" width="119" height="119" rx="59.5" fill="none"/>
      </g>
    </g>
    <g id="그룹_813" data-name="그룹 813" transform="translate(1224 202)">
      <g id="그룹_812" data-name="그룹 812" transform="translate(0 0.001)" clip-path="url(#clip-path)">
        <path id="패스_510" data-name="패스 510" d="M45.794,30.819,30.115,26.4q-.491-3.665-.947-7.348h8.415v4.8h.879v-4.8h.44V14.336l-10.639-2.97Q27.708,6.3,27.23,1.2L27.118,0H20.161L20.05,1.2q-.479,5.117-1.038,10.2L8.377,14.336v4.718h.44v4.8H9.7v-4.8h8.414q-.45,3.686-.947,7.348L1.486,30.819v5.5h.44v4.807h.879V36.317H15.753c-2.242,14.874-4.978,29.446-8.225,43.568h2.7q1.028-4.492,1.988-9.042H35.061q.962,4.549,1.987,9.042h2.7C36.5,65.764,33.769,51.192,31.527,36.317H44.475v4.807h.879V36.317h.439ZM30.956,49.356l-6.115-6.6,4.3-4.593Q30,43.789,30.956,49.356M26.3,17.3h-5.33c.178-1.5.368-2.988.535-4.491h4.26c.167,1.5.357,2.993.535,4.491m.209,1.759c.01.075.018.15.027.225l-.184-.109L23.64,23.765l-2.718-4.594-.183.109c.009-.076.018-.15.027-.225ZM16.733,53.58H30.545L23.64,58.745Zm-.3-1.759,7.2-7.774,7.2,7.774Zm7.2-10.364,0,0-4.812-5.144h9.632l-4.812,5.144Zm0-14.239.025-.041,4.659,7.38H18.956l4.659-7.38Zm1.031-1.742,2.171-3.67q.571,4.531,1.21,9.025Zm-4.233-3.67,2.171,3.67-3.382,5.355q.633-4.5,1.21-9.025m-2.3,16.355,4.3,4.593-6.115,6.6q.959-5.564,1.818-11.195m-2.777,16.59,6.8,5.087-9.083,6.738q1.2-5.87,2.28-11.824m8.274,6.186,0,0,0,0,10.981,8.146H12.657Zm1.474-1.1,6.8-5.087Q33,60.708,34.194,66.577Zm10.344-30.1-4.315,4.024q-.4-2.721-.771-5.458Zm1.635.881,3.024,3.943H32.864ZM30.173,17.3l2.15-2.455L34.1,17.3Zm6.97,0h-.869l-1.695-2.339,2.564.715ZM30.806,13.9l-1.979,2.259c-.113-.969-.233-1.936-.342-2.908ZM24.716,2.638c.269,2.82.565,5.628.871,8.432l-3.893-.018c.3-2.8.6-5.6.869-8.414ZM18.451,16.162,16.472,13.9l2.322-.648c-.11.972-.229,1.938-.343,2.908M17.106,17.3H13.178l1.778-2.455Zm-6.97-1.624,2.564-.715L11.005,17.3h-.869Zm6,18.088-4.315-4.024L16.909,28.3q-.376,2.736-.771,5.458m-1.722.8H7.164l3.024-3.943ZM3.245,32.151l4.527-1.276L4.948,34.559h-1.7Zm40.79,2.407h-1.7l-2.825-3.683,4.528,1.276Z" transform="translate(-0.179 0)" fill="#8eb2cf"/>
        <path id="패스_511" data-name="패스 511" d="M11.549,23.785H8.5a.66.66,0,1,1,0-1.319h3.053a.66.66,0,1,1,0,1.319" transform="translate(-0.945 -2.708)" fill="#1d65a0"/>
        <path id="패스_512" data-name="패스 512" d="M44.257,23.785H41.2a.66.66,0,0,1,0-1.319h3.054a.66.66,0,1,1,0,1.319" transform="translate(-4.887 -2.708)" fill="#1d65a0"/>
        <path id="패스_513" data-name="패스 513" d="M11.549,26.011H8.5a.66.66,0,0,1,0-1.319h3.053a.66.66,0,0,1,0,1.319" transform="translate(-0.945 -2.977)" fill="#1d65a0"/>
        <path id="패스_514" data-name="패스 514" d="M44.257,26.011H41.2a.66.66,0,0,1,0-1.319h3.054a.66.66,0,0,1,0,1.319" transform="translate(-4.887 -2.977)" fill="#1d65a0"/>
        <path id="패스_515" data-name="패스 515" d="M3.712,43.3H.66a.66.66,0,0,1,0-1.319H3.712a.66.66,0,0,1,0,1.319" transform="translate(0 -5.06)" fill="#1d65a0"/>
        <path id="패스_516" data-name="패스 516" d="M52.093,43.3H49.041a.66.66,0,0,1,0-1.319h3.053a.66.66,0,1,1,0,1.319" transform="translate(-5.832 -5.06)" fill="#1d65a0"/>
        <path id="패스_517" data-name="패스 517" d="M3.712,45.524H.66a.66.66,0,1,1,0-1.319H3.712a.66.66,0,1,1,0,1.319" transform="translate(0 -5.329)" fill="#1d65a0"/>
        <path id="패스_518" data-name="패스 518" d="M52.093,45.524H49.041a.66.66,0,1,1,0-1.319h3.053a.66.66,0,1,1,0,1.319" transform="translate(-5.832 -5.329)" fill="#1d65a0"/>
      </g>
    </g>
  </g>
</svg>
