<svg xmlns="http://www.w3.org/2000/svg" xmlns:xlink="http://www.w3.org/1999/xlink" width="24" height="24" viewBox="0 0 24 24">
  <defs>
    <clipPath id="clip-path">
      <rect id="사각형_280" data-name="사각형 280" width="24" height="24" transform="translate(133 454)" fill="#fff"/>
    </clipPath>
  </defs>
  <g id="ico-pcs-waiting" transform="translate(-133 -454)" clip-path="url(#clip-path)">
    <g id="Layer_2" data-name="Layer 2" transform="translate(133 454)">
      <g id="invisible_box" data-name="invisible box">
        <rect id="사각형_283" data-name="사각형 283" width="24" height="24" fill="none"/>
      </g>
      <g id="horoscope">
        <g id="그룹_703" data-name="그룹 703">
          <path id="패스_424" data-name="패스 424" d="M16.5,3A6.5,6.5,0,1,0,23,9.5,6.5,6.5,0,0,0,16.5,3ZM16,10.5a1,1,0,0,1-2,0v-2a1,1,0,0,1,2,0Zm3,0a1,1,0,0,1-2,0v-2a1,1,0,0,1,2,0Z" fill="#717987"/>
          <path id="패스_425" data-name="패스 425" d="M21,20H6V16.85A4,4,0,0,0,9,13V11a1,1,0,0,0-1-1H7.5V8a1,1,0,0,0-2,0v2h-1V8a1,1,0,1,0-2,0v2H2a1,1,0,0,0-1,1v2a4,4,0,0,0,3,3.85V20a2,2,0,0,0,2,2H21a1,1,0,0,0,0-2Z" fill="#717987"/>
        </g>
      </g>
    </g>
  </g>
</svg>
