<svg xmlns="http://www.w3.org/2000/svg" xmlns:xlink="http://www.w3.org/1999/xlink" width="40" height="40" viewBox="0 0 40 40">
  <defs>
    <clipPath id="clip-path">
      <rect id="사각형_318" data-name="사각형 318" width="40" height="40" transform="translate(42 314)" fill="#49b74e"/>
    </clipPath>
  </defs>
  <g id="ico-menu-info" transform="translate(-42 -314)" clip-path="url(#clip-path)">
    <g id="Layer_2" data-name="Layer 2" transform="translate(42 314)">
      <g id="invisible_box" data-name="invisible box">
        <rect id="사각형_348" data-name="사각형 348" width="40" height="40" fill="none"/>
      </g>
      <g id="icons_Q2" data-name="icons Q2">
        <path id="패스_463" data-name="패스 463" d="M21.667,1.75V13.5a7.25,7.25,0,0,1,3.083,1.833L35,9.417A18.5,18.5,0,0,0,21.667,1.75Zm15,10.583L26.417,18.25a6.25,6.25,0,0,1,0,3.5l10.25,5.917A18.5,18.5,0,0,0,36.667,12.333ZM20,26.667A6.667,6.667,0,0,1,18.333,13.5V1.75A18.333,18.333,0,1,0,35,30.583L24.75,24.667a6.667,6.667,0,0,1-4.75,2Z" fill="#49b74e"/>
      </g>
    </g>
  </g>
</svg>
