<svg id="ico-battery-error" xmlns="http://www.w3.org/2000/svg" xmlns:xlink="http://www.w3.org/1999/xlink" width="24" height="24" viewBox="0 0 24 24">
  <defs>
    <clipPath id="clip-path">
      <rect id="사각형_273" data-name="사각형 273" width="24" height="24" transform="translate(70 526)" fill="#fff"/>
    </clipPath>
  </defs>
  <g id="마스크_그룹_8" data-name="마스크 그룹 8" transform="translate(-526 94) rotate(-90)" clip-path="url(#clip-path)">
    <g id="Layer_2" data-name="Layer 2" transform="translate(70 526)">
      <g id="Icons">
        <g id="그룹_699" data-name="그룹 699">
          <rect id="사각형_275" data-name="사각형 275" width="24" height="24" fill="none"/>
          <path id="패스_419" data-name="패스 419" d="M22.5,9.5H21v-2a2,2,0,0,0-2-2H3a2,2,0,0,0-2,2v9a2,2,0,0,0,2,2H19a2,2,0,0,0,2-2v-2h1.5A.45.45,0,0,0,23,14V10a.45.45,0,0,0-.5-.5Z" fill="#717987"/>
        </g>
      </g>
    </g>
  </g>
  <g id="그룹_696" data-name="그룹 696" transform="translate(11.563 7.042)">
    <circle id="타원_1" data-name="타원 1" cx="0.75" cy="0.75" r="0.75" transform="translate(-0.313 9.958)" fill="#131b24"/>
    <path id="패스_417" data-name="패스 417" d="M21.2,12.675h.126a.694.694,0,0,0,.663-.631l.537-7.481a1.263,1.263,0,0,0-2.525,0l.537,7.481A.694.694,0,0,0,21.2,12.675Z" transform="translate(-20.826 -3.3)" fill="#131b24"/>
  </g>
</svg>
