<svg xmlns="http://www.w3.org/2000/svg" xmlns:xlink="http://www.w3.org/1999/xlink" width="24" height="24" viewBox="0 0 24 24">
  <defs>
    <clipPath id="clip-path">
      <rect id="사각형_3" data-name="사각형 3" width="24" height="24" fill="#fff"/>
    </clipPath>
  </defs>
  <g id="ico-password" clip-path="url(#clip-path)">
    <g id="Layer_2" data-name="Layer 2">
      <g id="invisible_box" data-name="invisible box">
        <rect id="사각형_5" data-name="사각형 5" width="24" height="24" fill="none"/>
      </g>
      <g id="icons_Q2" data-name="icons Q2" transform="translate(3 1)">
        <path id="패스_5" data-name="패스 5" d="M21,9.333H19v-2.5a5.5,5.5,0,0,0-5.5-5.5h-1A5.5,5.5,0,0,0,7,6.833v2.5H5a1,1,0,0,0-1,1v12a1,1,0,0,0,1,1H21a1,1,0,0,0,1-1v-12A1,1,0,0,0,21,9.333Zm-7.05,7.7v1.25a1,1,0,1,1-2,0v-1.25a2,2,0,1,1,2,0ZM17,9.333H9v-2.5a3.5,3.5,0,0,1,3.5-3.5h1a3.5,3.5,0,0,1,3.5,3.5Z" transform="translate(-4 -1.333)" fill="#b4becc"/>
      </g>
    </g>
  </g>
</svg>
