<svg xmlns="http://www.w3.org/2000/svg" xmlns:xlink="http://www.w3.org/1999/xlink" width="32" height="32" viewBox="0 0 32 32">
  <defs>
    <clipPath id="clip-path">
      <rect id="사각형_278" data-name="사각형 278" width="32" height="32" transform="translate(734 226)" fill="#fff"/>
    </clipPath>
  </defs>
  <g id="ico-bms-on" transform="translate(-734 -226)" clip-path="url(#clip-path)">
    <path id="power-solid" d="M16.665,2A14.665,14.665,0,1,0,31.33,16.665,14.665,14.665,0,0,0,16.665,2Zm.055,16.2a1.173,1.173,0,0,1-1.182-1.173V8.1a1.182,1.182,0,0,1,2.365,0v8.936A1.173,1.173,0,0,1,16.72,18.2Zm-.055,7.433A9.056,9.056,0,0,1,11.321,9.2a1.283,1.283,0,0,1,1.778.284,1.256,1.256,0,0,1-.284,1.76,6.581,6.581,0,1,0,10.476,5.316,6.48,6.48,0,0,0-2.75-5.279,1.256,1.256,0,0,1-.211-1.76,1.283,1.283,0,0,1,1.778-.266,9.056,9.056,0,0,1-5.444,16.388Z" transform="translate(733.003 225.003)" fill="#717987"/>
  </g>
</svg>
