<?xml version="1.0" encoding="utf-8"?>
<!-- Generator: Adobe Illustrator 26.2.1, SVG Export Plug-In . SVG Version: 6.00 Build 0)  -->
<svg version="1.1" id="레이어_1" xmlns="http://www.w3.org/2000/svg" xmlns:xlink="http://www.w3.org/1999/xlink" x="0px"
	 y="0px" viewBox="0 0 13.4 23.3" style="enable-background:new 0 0 13.4 23.3;" xml:space="preserve">
<style type="text/css">
	.st0{fill:#767676;}
</style>
<path id="ico-arrow" class="st0" d="M4,11.7l8.8-8.8c0.7-0.6,0.7-1.6,0.1-2.2c-0.1-0.1-0.2-0.2-0.3-0.3C12-0.2,11-0.1,10.4,0.5
	l-9.9,10c-0.6,0.6-0.7,1.6-0.1,2.2c0,0,0.1,0.1,0.1,0.1l9.9,10c0.6,0.6,1.6,0.7,2.2,0.2c0.7-0.5,0.9-1.5,0.4-2.2
	c-0.1-0.1-0.2-0.2-0.3-0.3L4,11.7z"/>
</svg>
