<svg xmlns="http://www.w3.org/2000/svg" width="24" height="59.292" viewBox="0 0 24 59.292"><defs><style>.a{fill:#fff;}.b{fill:rgba(255,255,255,0.5);}</style></defs><g transform="translate(-96.169)"><g transform="translate(96.169)"><g transform="translate(0)"><path class="a" d="M116.654,3.514A12,12,0,0,0,96.169,12V26.441a12,12,0,0,0,24,0V12A11.926,11.926,0,0,0,116.654,3.514Zm1.481,22.926a9.966,9.966,0,1,1-19.932,0V12a9.966,9.966,0,1,1,19.932,0Z" transform="translate(-96.169)"/></g></g><g transform="translate(107.153 6.305)"><path class="a" d="M243.486,83.979A1.017,1.017,0,0,0,242.469,85v2.39a1.017,1.017,0,1,0,2.034,0V85A1.017,1.017,0,0,0,243.486,83.979Z" transform="translate(-242.469 -83.979)"/></g><g transform="translate(107.153 11.419)"><path class="a" d="M243.486,152.1a1.017,1.017,0,0,0-1.017,1.017v.3a1.017,1.017,0,1,0,2.034,0v-.3A1.017,1.017,0,0,0,243.486,152.1Z" transform="translate(-242.469 -152.099)"/></g></g><path class="b" d="M15.191,18.436,22,11.624a1.281,1.281,0,0,1,1.817,0,1.3,1.3,0,0,1,0,1.822L16.1,21.164a1.284,1.284,0,0,1-1.774.038L6.563,13.452A1.287,1.287,0,1,1,8.379,11.63Z" transform="translate(-3.188 37.754)"/></svg>