<svg xmlns="http://www.w3.org/2000/svg" width="217.9" height="38.123" viewBox="0 0 217.9 38.123"><defs><style>.a{fill:#fff;}</style></defs><g transform="translate(-125.348 -336.66)"><rect class="a" width="0.987" height="38.123" transform="translate(251.935 336.66)"/><g transform="translate(265.954 348.938)"><path class="a" d="M525.834,372.251c2.223,0,3.517,1.994,3.517,4.857,0,2.832-1.294,4.827-3.517,4.827-2.207,0-3.517-1.979-3.517-4.827C522.317,374.246,523.628,372.251,525.834,372.251Zm0,1.431c-1.019,0-1.782,1.279-1.782,3.426s.763,3.4,1.782,3.4c1.051,0,1.813-1.264,1.813-3.4S526.886,373.682,525.834,373.682Zm6.989,2.848h2.011v1.476h-2.011v6.882h-1.811V371.322h1.811Z" transform="translate(-522.317 -371.322)"/><path class="a" d="M560.987,385.986v-1.4h12.258v1.4Zm10.156-2.055c-.548-.061-1.142-.107-1.7-.152a23.157,23.157,0,0,0,.441-3.106c-2.559.121-5.132.274-7.689.4l-.229-1.416c2.68-.107,5.345-.213,7.994-.335.046-.807.076-1.584.076-2.223h-7.583v-1.4h9.365A41.442,41.442,0,0,1,571.143,383.93Z" transform="translate(-547.916 -374.216)"/><path class="a" d="M605.228,380.275v1.035c1.279-.076,2.467-.152,3.457-.274l.152,1.355c-2.315.259-6.137.472-8.68.472l-.228-1.447c1.158,0,2.344-.015,3.517-.03V380.26c-1.385-.259-2.315-1.1-2.315-2.238,0-1.385,1.371-2.33,3.243-2.33,1.889,0,3.274.944,3.274,2.33C607.649,379.194,606.659,380.047,605.228,380.275Zm-4.858-4.949v-1.34h7.919v1.34Zm2.026-3.289h3.944v1.34H602.4Zm1.978,5.024c-.851,0-1.462.442-1.462.96s.61.974,1.462.974c.868,0,1.478-.457,1.478-.974S605.243,377.062,604.375,377.062Zm6.868,7.827H609.46V371.322h1.782Z" transform="translate(-573.695 -371.322)"/><path class="a" d="M639.126,382.24l-1.158-1.233a8.412,8.412,0,0,0,4.264-6.654h-3.411v-1.431h5.132A10.353,10.353,0,0,1,639.126,382.24Zm6.349,2.025V379.7h-1.721V378.25h1.721v-1.919h-1.386v-1.446h1.386v-3.3h1.66v12.683Zm2.679.624V371.322h1.691v13.567Z" transform="translate(-598.876 -371.322)"/><path class="a" d="M679.253,378.052v-6.106h1.782v1.767h2.832v-1.8h1.765v6.136Zm4.613-2.969h-2.832v1.538h2.832Zm-2.771,9.638v-5.36h1.811v1.31h5.345v-1.325h1.782v5.375Zm7.156-2.665h-5.345v1.249h5.345Zm0-3.411v-2.893h-1.934v-1.508h1.934v-2.924h1.765v7.324Z" transform="translate(-626.206 -371.322)"/><path class="a" d="M721.861,372.327a3.356,3.356,0,0,1,3.67,3.35c0,1.949-1.432,3.334-3.67,3.334s-3.67-1.386-3.67-3.334A3.364,3.364,0,0,1,721.861,372.327Zm-1.995,12.2v-4.339h1.8v2.938h7.614v1.4Zm1.995-6.974a1.85,1.85,0,1,0-1.843-1.873A1.753,1.753,0,0,0,721.861,377.55Zm5.345,3.609v-9.837h1.766v9.837Z" transform="translate(-651.982 -371.322)"/></g><g transform="translate(125.348 341.593)"><g transform="translate(29.6)"><path class="a" d="M404.005,351.255h-9.546L384.27,362.943V351.255h-7.893v28.257h7.893v-5.618l4.011-4.6L395,379.511h9l-10.593-16.106Z" transform="translate(-321.124 -351.255)"/><path class="a" d="M320.3,366.157h0V356.9l-4.933-5.648h-20.72v28.257h7.893v-7.706h5.673l3.946,7.706h8.387l-4.4-8.6Zm-7.893-2.058h-9.866v-5.137h9.866Z" transform="translate(-267.02 -351.255)"/><path class="a" d="M217.849,351.255l-4.933,5.648v22.608h7.893v-6.679h9.866v6.679h7.893V356.9l-4.933-5.648Zm2.96,14.385v-6.679h9.866v6.679Z" transform="translate(-212.916 -351.255)"/></g><path class="a" d="M150.122,379.86l-24.773-28.155v20.248l6.909,7.908Z" transform="translate(-125.348 -351.553)"/><path class="a" d="M145.653,365.222l12.385-13.517h-24.77Z" transform="translate(-130.591 -351.553)"/></g></g></svg>