<svg id="ico-logo" xmlns="http://www.w3.org/2000/svg" xmlns:xlink="http://www.w3.org/1999/xlink" width="50" height="44.748" viewBox="0 0 50 44.748">
  <defs>
    <clipPath id="clip-path">
      <rect id="사각형_24015" data-name="사각형 24015" width="50" height="44.748" fill="none"/>
    </clipPath>
  </defs>
  <g id="그룹_18634" data-name="그룹 18634" clip-path="url(#clip-path)">
    <path id="패스_7748" data-name="패스 7748" d="M15.331,69.235a6.255,6.255,0,0,0,0-8.846l-6.583-6.58a2.988,2.988,0,0,0-4.223,0L.876,57.459a2.99,2.99,0,0,0,0,4.227L4,64.814.879,67.94a2.989,2.989,0,0,0-.01,4.215L4.54,75.824a2.985,2.985,0,0,0,4.2,0Z" transform="translate(0 -42.437)" fill="#20992a"/>
    <path id="패스_7749" data-name="패스 7749" d="M60.389,15.33a6.257,6.257,0,0,0,8.846,0l6.585-6.585a2.989,2.989,0,0,0,0-4.224L72.17.873a2.982,2.982,0,0,0-4.221.006L64.815,4.012,61.681.877A2.983,2.983,0,0,0,57.47.864L53.8,4.534a2.986,2.986,0,0,0,0,4.206Z" transform="translate(-42.437 0)" fill="#20992a"/>
    <path id="패스_7750" data-name="패스 7750" d="M152.265,43.6l8.378-8.383a2.98,2.98,0,0,0,.016-4.208l-3.67-3.67a2.986,2.986,0,0,0-4.206,0L140.945,39.175a6.256,6.256,0,0,0,0,8.847l11.829,11.824a2.99,2.99,0,0,0,4.225,0l3.649-3.648a2.983,2.983,0,0,0-.005-4.221Z" transform="translate(-111.522 -21.223)" fill="#00256a"/>
    <path id="패스_7751" data-name="패스 7751" d="M69.252,140.937a6.255,6.255,0,0,0-8.846,0l-6.585,6.589a2.986,2.986,0,0,0,0,4.205l3.669,3.671a2.98,2.98,0,0,0,4.207-.018l3.134-3.135,3.132,3.134a2.981,2.981,0,0,0,4.22.007l3.648-3.648a2.99,2.99,0,0,0,0-4.225Z" transform="translate(-42.452 -111.515)" fill="#20992a"/>
  </g>
</svg>
