<svg xmlns="http://www.w3.org/2000/svg" xmlns:xlink="http://www.w3.org/1999/xlink" width="24" height="24" viewBox="0 0 24 24">
  <defs>
    <clipPath id="clip-path">
      <rect id="사각형_306" data-name="사각형 306" width="24" height="24" transform="translate(971 40)" fill="#b4becc"/>
    </clipPath>
  </defs>
  <g id="ico-weather" transform="translate(-971 -40)" clip-path="url(#clip-path)">
    <path id="solar-eclipse" d="M0,11.995a.95.95,0,0,1,.286-.7.968.968,0,0,1,.677-.275H3.271a.842.842,0,0,1,.651.286.988.988,0,0,1,.259.688.969.969,0,0,1-.259.683.849.849,0,0,1-.651.281H.963a.924.924,0,0,1-.677-.286A.929.929,0,0,1,0,11.995Zm3.229,7.823a1,1,0,0,1,.265-.688l1.662-1.609a.882.882,0,0,1,.667-.265.943.943,0,0,1,.672.254.848.848,0,0,1,.27.646,1.045,1.045,0,0,1-.275.72L4.879,20.485a1.025,1.025,0,0,1-1.387,0,.951.951,0,0,1-.265-.667Zm0-15.637a1,1,0,0,1,.265-.688,1.1,1.1,0,0,1,.72-.275.954.954,0,0,1,.667.275L6.489,5.155a.864.864,0,0,1,.275.667.924.924,0,0,1-.942.943.864.864,0,0,1-.667-.275L3.493,4.881a.991.991,0,0,1-.265-.7Zm2.879,7.813A5.73,5.73,0,0,1,6.9,9.056,5.883,5.883,0,0,1,9.057,6.9a5.747,5.747,0,0,1,2.938-.794,5.676,5.676,0,0,1,2.276.471A5.991,5.991,0,0,1,16.15,7.84,5.9,5.9,0,0,1,17.4,9.719a5.845,5.845,0,0,1-.323,5.219,5.831,5.831,0,0,1-2.144,2.143,5.887,5.887,0,0,1-5.887,0A5.88,5.88,0,0,1,6.9,14.938a5.725,5.725,0,0,1-.794-2.943Zm4.923,8.777a.912.912,0,0,1,.281-.677.991.991,0,0,1,1.371,0,.921.921,0,0,1,.275.677v2.245a.96.96,0,0,1-.281.7.958.958,0,0,1-1.365,0,.96.96,0,0,1-.281-.7Zm0-17.5V.963a.924.924,0,0,1,.286-.677.945.945,0,0,1,1.355,0,.927.927,0,0,1,.286.677V3.271a.849.849,0,0,1-.281.651,1.027,1.027,0,0,1-1.365,0,.846.846,0,0,1-.281-.651Zm.117,4.881a3.967,3.967,0,0,1,3.473,3.938,3.794,3.794,0,0,1-.884,2.483A3.9,3.9,0,0,1,11.5,15.943a4.442,4.442,0,0,0,.5.043,3.995,3.995,0,0,0,3.991-3.991,3.767,3.767,0,0,0-1.17-2.784,3.875,3.875,0,0,0-2.821-1.154,3.749,3.749,0,0,0-.847.1Zm6.119,10a.886.886,0,0,1,.889-.9.917.917,0,0,1,.677.265l1.651,1.609a.98.98,0,0,1,.275.688.908.908,0,0,1-.275.667,1,1,0,0,1-1.355,0L17.52,18.875a1.044,1.044,0,0,1-.254-.72Zm0-12.333a.88.88,0,0,1,.254-.667L19.13,3.494a.956.956,0,0,1,.667-.275.921.921,0,0,1,.683.286.935.935,0,0,1,.281.677.947.947,0,0,1-.275.7L18.833,6.49a.993.993,0,0,1-.677.275.836.836,0,0,1-.635-.27.943.943,0,0,1-.254-.672Zm2.551,6.172a.993.993,0,0,1,.275-.7.884.884,0,0,1,.646-.275h2.287a1,1,0,0,1,.974.974.914.914,0,0,1-.291.677.945.945,0,0,1-.683.286H20.739a.866.866,0,0,1-.657-.281.958.958,0,0,1-.265-.683Z" transform="translate(971 40)" fill="#717987"/>
  </g>
</svg>
