<svg xmlns="http://www.w3.org/2000/svg" xmlns:xlink="http://www.w3.org/1999/xlink" width="24" height="24" viewBox="0 0 24 24">
  <defs>
    <clipPath id="clip-path">
      <rect id="사각형_271" data-name="사각형 271" width="24" height="24" transform="translate(70 454)" fill="#fff"/>
    </clipPath>
  </defs>
  <g id="ico-pcs-discharge" transform="translate(-70 -454)" clip-path="url(#clip-path)">
    <g id="Layer_2" data-name="Layer 2" transform="translate(70 454)">
      <g id="invisible_box" data-name="invisible box">
        <rect id="사각형_281" data-name="사각형 281" width="24" height="24" fill="none"/>
      </g>
      <g id="horoscope">
        <g id="그룹_702" data-name="그룹 702">
          <path id="패스_421" data-name="패스 421" d="M12.8,12.8l-1.7,1.7L9.5,12.9l1.7-1.7A1,1,0,0,0,9.8,9.8L8.1,11.5l-.65-.65a.95.95,0,0,0-1.4,0l-1.5,1.5a4.9,4.9,0,0,0-1.5,3.5,4.55,4.55,0,0,0,.9,2.8L2.3,20.3a.95.95,0,0,0,0,1.4.95.95,0,0,0,1.4,0l1.6-1.6a5.064,5.064,0,0,0,6.5-.5l1.5-1.5a1,1,0,0,0,.3-.7.85.85,0,0,0-.3-.7l-.8-.8,1.7-1.7a1,1,0,0,0-1.4-1.4Z" fill="#717987"/>
          <path id="패스_422" data-name="패스 422" d="M21.7,2.3a.95.95,0,0,0-1.4,0L18.6,4a5,5,0,0,0-6.5.45l-1.5,1.5a1,1,0,0,0-.3.7.85.85,0,0,0,.3.7l5.85,5.85a.95.95,0,0,0,1.4,0l1.5-1.45A4.95,4.95,0,0,0,20.8,8.2,5.2,5.2,0,0,0,20,5.45L21.7,3.7a.95.95,0,0,0,0-1.4Z" fill="#717987"/>
        </g>
      </g>
    </g>
  </g>
</svg>
