<svg xmlns="http://www.w3.org/2000/svg" xmlns:xlink="http://www.w3.org/1999/xlink" width="24" height="24" viewBox="0 0 24 24">
  <defs>
    <clipPath id="clip-path">
      <rect id="사각형_277" data-name="사각형 277" width="24" height="24" transform="translate(70 526)" fill="#717987"/>
    </clipPath>
  </defs>
  <g id="ico-battery-waiting" transform="translate(-526 94) rotate(-90)" clip-path="url(#clip-path)">
    <g id="Layer_2" data-name="Layer 2" transform="translate(70 526)">
      <g id="Icons">
        <g id="그룹_700" data-name="그룹 700">
          <rect id="사각형_276" data-name="사각형 276" width="24" height="24" fill="none"/>
          <path id="패스_420" data-name="패스 420" d="M22.5,9.5H21v-2a2,2,0,0,0-2-2H3a2,2,0,0,0-2,2v9a2,2,0,0,0,2,2H19a2,2,0,0,0,2-2v-2h1.5A.45.45,0,0,0,23,14V10a.45.45,0,0,0-.5-.5Z" fill="#717987"/>
        </g>
      </g>
    </g>
  </g>
</svg>
