<svg id="ico-battery-normal" xmlns="http://www.w3.org/2000/svg" xmlns:xlink="http://www.w3.org/1999/xlink" width="24" height="24" viewBox="0 0 24 24">
  <defs>
    <clipPath id="clip-path">
      <rect id="사각형_272" data-name="사각형 272" width="24" height="24" transform="translate(70 490)" fill="#fff"/>
    </clipPath>
  </defs>
  <g id="충전중" transform="translate(-490 94) rotate(-90)" clip-path="url(#clip-path)">
    <g id="Layer_2" data-name="Layer 2" transform="translate(70 490)">
      <g id="Icons">
        <g id="그룹_698" data-name="그룹 698">
          <rect id="사각형_274" data-name="사각형 274" width="24" height="24" fill="none"/>
          <path id="패스_418" data-name="패스 418" d="M22.5,9.5H21v-2a2,2,0,0,0-2-2H3a2,2,0,0,0-2,2v9a2,2,0,0,0,2,2H19a2,2,0,0,0,2-2v-2h1.5A.5.5,0,0,0,23,14V10A.5.5,0,0,0,22.5,9.5Zm-5.9,4.55L12,12.5v2a.5.5,0,0,1-.85.35L5.1,10.4a.27.27,0,1,1,.3-.45L10,11.5v-2a.5.5,0,0,1,.85-.35L16.9,13.6a.27.27,0,1,1-.3.45Z" fill="#717987"/>
        </g>
      </g>
    </g>
  </g>
</svg>
