<svg width="72" height="72" viewBox="0 0 72 72" xmlns="http://www.w3.org/2000/svg" xmlns:xlink="http://www.w3.org/1999/xlink">
    <defs>
        <linearGradient x1="147.304%" y1="-50.757%" x2="23.38%" y2="87.139%" id="slbplrz3da">
            <stop stop-color="#24D08D" offset="0%"/>
            <stop stop-color="#0A7A4D" offset="100%"/>
        </linearGradient>
        <filter x="-42.7%" y="-64.7%" width="185.4%" height="229.5%" filterUnits="objectBoundingBox" id="te4iishyob">
            <feOffset in="SourceAlpha" result="shadowOffsetOuter1"/>
            <feGaussianBlur stdDeviation="6" in="shadowOffsetOuter1" result="shadowBlurOuter1"/>
            <feColorMatrix values="0 0 0 0 0 0 0 0 0 0 0 0 0 0 0 0 0 0 0.0767233255 0" in="shadowBlurOuter1"/>
        </filter>
        <path d="M39.965 43.746c.037.063.067.126.09.19-.28.386-.762.674-1.336.748-.98.128-1.857-.412-1.962-1.205.185-.152.415-.28.684-.37.986-.333 2.115-.049 2.524.637zm-7.266-2.165c.665.307 1.163.802 1.405 1.332-.406.732-1.457.983-2.412.554-.86-.385-1.36-1.194-1.25-1.927.577-.33 1.437-.338 2.257.041zm11.086-.354c-.157.674-.916 1.277-1.635 1.339-.796.068-1.965-.38-2.05-1.222a.26.26 0 0 1 .31-.285c.915.206 2.117.091 3.062-.14a.259.259 0 0 1 .313.308zm-9.373-.906.064.013c.825.272 2.225.59 3.215.602.176.002.305.177.242.34-.63 1.638-3.682 1.127-3.8-.69a.253.253 0 0 1 .216-.262l.063-.003zm-.107-23.428c7.976 0 14.442 6.466 14.442 14.442a14.38 14.38 0 0 1-3.226 9.095c-1.008.559-1.671-.857-3.62-.765-1.491.07-1.752 1.602-3.21 1.157-1.091-.332-.835-1.229-2.259-1.584-.758-.189-1.468.097-1.978.435-1.049.693-1.665.067-2.215-.74l-.072-.106-.077-.117-.08-.123-.07-.108-.065-.1c-.302-.468-.61-.91-.986-1.127-.3-.173-.7-.237-1.131-.27l-.218-.015-.146-.008-.111-.006-.11-.005-.148-.007-.07-.005-.14-.008-.068-.005c-.97-.074-1.814-.298-1.738-1.549.037-.61-.07-1.368-.613-1.93-1.02-1.055-1.667-.386-2.5-1.163-1.115-1.041.08-2.033-.604-3.36-.896-1.736-2.457-1.6-2.471-2.759 2.08-5.42 7.33-9.269 13.484-9.269zm-5.63 20.6a21.078 21.078 0 0 0 3.111 1.797.264.264 0 0 1 .117.369c-1.027 1.769-4.625-.309-3.606-2.082a.264.264 0 0 1 .377-.083zm-2.441.355c.738.521 1.16 1.27 1.164 1.934-.58.462-1.531.433-2.295-.118-.848-.613-1.157-1.65-.726-2.367.58-.055 1.259.129 1.857.551zm12.168.099c-.197.044-.37.117-.512.211.016.57.598 1.018 1.302 1 .413-.01.775-.179 1.002-.43a.735.735 0 0 0-.05-.143c-.238-.516-1.018-.801-1.742-.638zm18.178-.872a25.495 25.495 0 0 1-1.577 1.666h-6.395c.28-.539.53-1.095.748-1.666zm-24.12-.707c-.085.572.304 1.202.974 1.503.745.334 1.565.139 1.881-.432-.19-.413-.577-.8-1.096-1.039-.64-.295-1.31-.289-1.759-.032zm-8.163-3.166c.505.852 1.48 1.906 2.128 2.483.135.12.115.344-.047.424-1.632.806-3.601-1.581-2.498-2.946.11-.137.327-.112.417.039zm4.298.069-.172.007c-.337.56-.096 1.367.566 1.845.595.43 1.336.452 1.789.092-.003-.518-.332-1.101-.908-1.508a2.348 2.348 0 0 0-1.096-.426l-.179-.01zm-7.869-.633c.798.012 1.61.847 1.814 1.868.055.278.06.54.021.777-.74.306-1.646-.185-2.025-1.097-.222-.534-.214-1.095-.02-1.53.067-.012.137-.018.21-.018zm38.944-.007a25.27 25.27 0 0 1-1 1.666h-8.534c.102-.546.175-1.102.22-1.666zm-34.398-3.197a.846.846 0 0 0-.163.014c-.15.34-.154.777.022 1.193.298.71 1.007 1.089 1.582.847.03-.184.025-.389-.02-.605-.163-.795-.798-1.443-1.42-1.449zm-3.852-1.247c.273.934.774 2.033 1.41 2.723a.26.26 0 0 1-.09.411c-.774.347-1.746-.441-2.085-1.166-.305-.653-.164-1.612.342-2.085.14-.13.37-.066.423.117zm40.144 0c-.18.565-.382 1.12-.599 1.667H50.342a16.1 16.1 0 0 0-.239-1.667zm.972-4.443a25.425 25.425 0 0 1-.264 1.666h-12.99a16.037 16.037 0 0 0-.769-1.666z" id="6ze2arsp5c"/>
    </defs>
    <g fill="none" fill-rule="evenodd">
        <path d="M0 0h72v72H0z"/>
        <path fill="url(#slbplrz3da)" d="M0 0h72v72H0z"/>
        <g>
            <use fill="#000" filter="url(#te4iishyob)" xlink:href="#6ze2arsp5c"/>
            <use fill="#FFF" xlink:href="#6ze2arsp5c"/>
        </g>
        <path d="M28.976 47.801v1.777c0 .071.03.14.08.189a12.224 12.224 0 0 1 3.706 8.767v1.901h3.085v-1.9c0-3.303 1.337-6.467 3.706-8.768a.263.263 0 0 0 .08-.189v-1.777c-1.668.585-3.46.907-5.328.907-1.869 0-3.66-.322-5.33-.907" fill="#F6711B"/>
    </g>
</svg>
