<svg width="48" height="48" viewBox="0 0 48 48" xmlns="http://www.w3.org/2000/svg" xmlns:xlink="http://www.w3.org/1999/xlink">
    <defs>
        <linearGradient x1="147.304%" y1="-50.757%" x2="23.38%" y2="87.139%" id="dv9lpn8xqa">
            <stop stop-color="#24D08D" offset="0%"/>
            <stop stop-color="#0A7A4D" offset="100%"/>
        </linearGradient>
        <filter x="-64%" y="-97.1%" width="228.1%" height="294.2%" filterUnits="objectBoundingBox" id="l0h5v3rilb">
            <feOffset in="SourceAlpha" result="shadowOffsetOuter1"/>
            <feGaussianBlur stdDeviation="6" in="shadowOffsetOuter1" result="shadowBlurOuter1"/>
            <feColorMatrix values="0 0 0 0 0 0 0 0 0 0 0 0 0 0 0 0 0 0 0.0767233255 0" in="shadowBlurOuter1"/>
        </filter>
        <path d="M26.643 29.164a.717.717 0 0 1 .06.127c-.186.257-.508.449-.89.499-.653.085-1.238-.275-1.309-.804.124-.101.277-.186.456-.247.658-.222 1.411-.032 1.683.425zm-4.844-1.443c.444.204.775.535.937.888-.27.488-.971.655-1.608.37-.573-.258-.906-.797-.833-1.286.384-.22.957-.225 1.504.028zm7.391-.236c-.105.45-.61.85-1.09.892-.53.046-1.31-.253-1.367-.815a.173.173 0 0 1 .207-.19c.61.138 1.411.062 2.042-.093a.172.172 0 0 1 .208.206zm-6.255-.605.05.01c.549.18 1.483.392 2.143.4.117.002.203.119.16.228-.42 1.092-2.454.75-2.533-.46a.168.168 0 0 1 .133-.173l.047-.005zm-.065-15.618a9.628 9.628 0 0 1 7.477 15.691c-.672.373-1.114-.57-2.413-.51-.994.047-1.168 1.068-2.14.772-.728-.222-.557-.82-1.506-1.056-.506-.126-.978.065-1.319.29-.686.454-1.095.059-1.457-.465l-.067-.1-.052-.077-.053-.083-.047-.071-.043-.067c-.201-.312-.406-.607-.657-.752-.195-.112-.453-.155-.73-.178l-.17-.011-.097-.006-.074-.004-.074-.003-.098-.005-.047-.003-.093-.005-.045-.004c-.647-.049-1.21-.198-1.16-1.032.026-.407-.046-.912-.408-1.287-.68-.704-1.111-.257-1.666-.776-.744-.694.053-1.355-.403-2.24-.597-1.157-1.638-1.065-1.648-1.838 1.388-3.614 4.888-6.18 8.99-6.18zm-3.754 13.734c.686.474 1.32.841 2.075 1.198a.176.176 0 0 1 .078.245c-.685 1.18-3.084-.205-2.404-1.388a.176.176 0 0 1 .251-.055zm-1.627.236c.493.348.774.846.776 1.29-.387.307-1.02.288-1.53-.08-.565-.408-.77-1.099-.484-1.577.387-.037.84.086 1.238.367zm8.113.066a1.03 1.03 0 0 0-.342.141c.01.38.399.678.868.667a.929.929 0 0 0 .668-.288.49.49 0 0 0-.033-.094c-.16-.345-.679-.535-1.161-.426zm12.118-.582c-.334.387-.684.757-1.051 1.111h-4.264c.187-.359.354-.73.499-1.11zm-16.08-.47c-.057.38.203.8.65 1.001.496.223 1.042.093 1.253-.288-.126-.275-.384-.533-.73-.692-.426-.197-.873-.193-1.173-.022zm-5.442-2.111c.337.567.987 1.27 1.419 1.655.09.08.076.23-.031.283-1.089.537-2.402-1.055-1.666-1.964.074-.091.218-.075.278.026zm2.882.046-.132.004c-.224.373-.063.912.378 1.23.396.287.89.302 1.193.062-.002-.346-.222-.735-.606-1.005a1.576 1.576 0 0 0-.696-.28l-.137-.011zm-5.263-.422c.532.007 1.073.565 1.21 1.245.037.185.04.36.014.518-.493.204-1.097-.123-1.35-.731-.149-.356-.143-.73-.014-1.02a.722.722 0 0 1 .14-.012zm25.963-.005c-.208.38-.432.75-.667 1.111h-5.689c.068-.364.117-.735.147-1.111zm-22.932-2.131a.564.564 0 0 0-.109.01c-.1.226-.103.517.015.794.199.474.671.726 1.055.565.02-.122.016-.26-.013-.404-.11-.53-.533-.962-.948-.965zm-2.568-.832c.182.623.516 1.356.94 1.815a.173.173 0 0 1-.06.275c-.516.231-1.164-.295-1.39-.777-.204-.436-.109-1.075.228-1.39a.173.173 0 0 1 .282.077zm26.762 0c-.12.377-.254.747-.399 1.112h-7.082a10.734 10.734 0 0 0-.159-1.111zm.649-2.962a16.95 16.95 0 0 1-.177 1.111h-8.659c-.15-.381-.321-.752-.513-1.11z" id="ra1txmbb1c"/>
    </defs>
    <g fill="none" fill-rule="evenodd">
        <path d="M0 0h48v48H0z"/>
        <path fill="url(#dv9lpn8xqa)" d="M0 0h48v48H0z"/>
        <g>
            <use fill="#000" filter="url(#l0h5v3rilb)" xlink:href="#ra1txmbb1c"/>
            <use fill="#FFF" xlink:href="#ra1txmbb1c"/>
        </g>
        <path d="M19.317 31.868v1.184c0 .047.02.093.053.126a8.15 8.15 0 0 1 2.471 5.845v1.267h2.057v-1.267c0-2.202.891-4.31 2.47-5.845a.175.175 0 0 0 .054-.126v-1.184c-1.112.39-2.307.604-3.552.604-1.246 0-2.44-.214-3.553-.604" fill="#F6711B"/>
    </g>
</svg>
