<svg width="196" height="196" viewBox="0 0 196 196" xmlns="http://www.w3.org/2000/svg" xmlns:xlink="http://www.w3.org/1999/xlink">
    <defs>
        <linearGradient x1="147.304%" y1="-50.757%" x2="23.38%" y2="87.139%" id="ltxc7u3hva">
            <stop stop-color="#24D08D" offset="0%"/>
            <stop stop-color="#0A7A4D" offset="100%"/>
        </linearGradient>
        <filter x="-15.7%" y="-23.8%" width="131.4%" height="147.6%" filterUnits="objectBoundingBox" id="1tby76q47b">
            <feOffset in="SourceAlpha" result="shadowOffsetOuter1"/>
            <feGaussianBlur stdDeviation="6" in="shadowOffsetOuter1" result="shadowBlurOuter1"/>
            <feColorMatrix values="0 0 0 0 0 0 0 0 0 0 0 0 0 0 0 0 0 0 0.0767233255 0" in="shadowBlurOuter1"/>
        </filter>
        <path d="M108.792 119.086c.101.171.184.343.245.52-.76 1.048-2.072 1.832-3.636 2.035-2.665.347-5.054-1.122-5.341-3.282a5.944 5.944 0 0 1 1.861-1.008c2.685-.906 5.76-.131 6.871 1.735zm-19.779-5.893c1.81.834 3.166 2.184 3.827 3.626-1.106 1.994-3.968 2.675-6.568 1.509-2.338-1.05-3.7-3.251-3.402-5.248 1.57-.897 3.91-.92 6.143.113zm30.18-.964c-.427 1.835-2.494 3.476-4.45 3.644-2.169.186-5.35-1.032-5.584-3.327-.05-.478.375-.88.846-.775 2.491.56 5.763.25 8.336-.38a.704.704 0 0 1 .852.838zm-25.34-2.432c2.244.741 6.056 1.606 8.752 1.64.478.005.83.481.658.928-1.715 4.457-10.023 3.065-10.345-1.88-.031-.491.468-.842.935-.688zm-.468-63.81c21.712 0 39.314 17.6 39.314 39.314a39.145 39.145 0 0 1-8.78 24.757c-2.745 1.522-4.55-2.33-9.856-2.08-4.059.191-4.768 4.36-8.74 3.149-2.969-.905-2.271-3.346-6.146-4.313-2.066-.513-3.996.265-5.385 1.184-2.914 1.927-4.601.112-6.122-2.147l-.104-.155-.21-.318-.22-.337-.188-.293-.176-.273c-.824-1.272-1.66-2.476-2.686-3.068-.878-.507-2.076-.669-3.35-.754l-.321-.02-.4-.022-.3-.016-.302-.014-.401-.02-.192-.012-.38-.023-.184-.014c-2.64-.2-4.94-.81-4.732-4.216.102-1.662-.19-3.724-1.668-5.256-2.775-2.87-4.539-1.048-6.806-3.165-3.035-2.834.22-5.533-1.643-9.145-2.44-4.726-6.69-4.354-6.729-7.51 5.665-14.754 19.958-25.233 36.707-25.233zm-15.327 56.08a57.38 57.38 0 0 0 8.471 4.89.718.718 0 0 1 .318 1.002c-2.797 4.816-12.59-.838-9.817-5.667a.718.718 0 0 1 1.028-.226zm-6.644.964c2.01 1.419 3.16 3.456 3.17 5.264-1.58 1.258-4.17 1.179-6.247-.322-2.31-1.668-3.15-4.488-1.977-6.443 1.579-.148 3.426.351 5.054 1.501zm33.126.268a4.204 4.204 0 0 0-1.395.577c.044 1.552 1.629 2.77 3.544 2.722 1.124-.029 2.11-.487 2.728-1.174a2.002 2.002 0 0 0-.135-.386c-.65-1.405-2.772-2.182-4.742-1.739zm49.484-2.373a69.404 69.404 0 0 1-4.294 4.536h-17.408a43.547 43.547 0 0 0 2.036-4.536zm-65.66-1.924c-.233 1.556.828 3.273 2.652 4.09 2.027.91 4.258.379 5.12-1.176-.515-1.124-1.572-2.175-2.983-2.826-1.741-.805-3.566-.788-4.79-.088zM66.14 90.383c1.376 2.319 4.03 5.187 5.795 6.76.367.328.312.936-.128 1.153-4.444 2.195-9.805-4.304-6.8-8.019.3-.372.888-.305 1.133.106zm11.232.207c-.916 1.523-.26 3.721 1.541 5.022 1.619 1.17 3.637 1.232 4.87.25-.007-1.409-.904-2.997-2.472-4.103-1.269-.896-2.708-1.285-3.94-1.17zM56.42 88.85c2.172.03 4.38 2.305 4.937 5.082.152.758.165 1.474.059 2.116-2.014.832-4.48-.502-5.513-2.985-.606-1.455-.583-2.982-.056-4.165.184-.035.374-.05.573-.049zm106.013-.021a68.79 68.79 0 0 1-2.723 4.536h-23.229a43.89 43.89 0 0 0 .599-4.536zm-93.637-8.703a2.302 2.302 0 0 0-.445.04c-.407.925-.42 2.114.06 3.246.813 1.933 2.741 2.963 4.307 2.307.081-.501.068-1.06-.053-1.65-.444-2.163-2.174-3.928-3.869-3.943zM58.31 76.732c.743 2.543 2.108 5.533 3.84 7.411.327.354.192.922-.248 1.12-2.105.945-4.75-1.202-5.673-3.173-.833-1.78-.447-4.388.93-5.677a.704.704 0 0 1 1.151.319zm109.28 0a68.269 68.269 0 0 1-1.63 4.537h-28.917a43.83 43.83 0 0 0-.652-4.537zm2.648-12.096a69.213 69.213 0 0 1-.72 4.536h-35.36a43.657 43.657 0 0 0-2.095-4.536z" id="n5kkp18f9c"/>
    </defs>
    <g fill="none" fill-rule="evenodd">
        <path d="M0 0h196v196H0z"/>
        <path fill="url(#ltxc7u3hva)" d="M0 0h196v196H0z"/>
        <g>
            <use fill="#000" filter="url(#1tby76q47b)" xlink:href="#n5kkp18f9c"/>
            <use fill="#FFF" xlink:href="#n5kkp18f9c"/>
        </g>
        <path d="M78.879 130.126v4.838c0 .192.08.378.217.513a33.277 33.277 0 0 1 10.09 23.866v5.175h8.398v-5.175c0-8.99 3.638-17.601 10.089-23.866a.715.715 0 0 0 .217-.513v-4.838a43.74 43.74 0 0 1-14.505 2.468c-5.086 0-9.965-.875-14.506-2.468" fill="#F6711B"/>
    </g>
</svg>
