<svg width="57" height="57" viewBox="0 0 57 57" xmlns="http://www.w3.org/2000/svg" xmlns:xlink="http://www.w3.org/1999/xlink">
    <defs>
        <linearGradient x1="147.304%" y1="-50.757%" x2="23.38%" y2="87.139%" id="5kxkofuufa">
            <stop stop-color="#24D08D" offset="0%"/>
            <stop stop-color="#0A7A4D" offset="100%"/>
        </linearGradient>
        <filter x="-53.9%" y="-81.8%" width="207.8%" height="263.5%" filterUnits="objectBoundingBox" id="ziemvxmlzb">
            <feOffset in="SourceAlpha" result="shadowOffsetOuter1"/>
            <feGaussianBlur stdDeviation="6" in="shadowOffsetOuter1" result="shadowBlurOuter1"/>
            <feColorMatrix values="0 0 0 0 0 0 0 0 0 0 0 0 0 0 0 0 0 0 0.0767233255 0" in="shadowBlurOuter1"/>
        </filter>
        <path d="M31.639 34.632c.029.05.053.1.07.151-.22.305-.602.533-1.057.592-.775.101-1.47-.326-1.553-.954.147-.12.329-.221.541-.293.781-.264 1.676-.039 1.999.504zm-5.752-1.714c.526.243.92.636 1.112 1.055-.321.58-1.154.778-1.91.439-.68-.306-1.076-.946-.989-1.527.457-.26 1.137-.267 1.787.033zm8.776-.28c-.124.534-.725 1.01-1.294 1.06-.63.054-1.556-.3-1.624-.968a.206.206 0 0 1 .246-.225c.725.163 1.676.072 2.425-.11a.205.205 0 0 1 .247.243zm-7.427-.718.058.01c.652.216 1.761.468 2.545.478.14.001.241.14.192.27-.5 1.296-2.915.891-3.009-.547a.2.2 0 0 1 .157-.205l.057-.006zm-.078-18.546c6.314 0 11.433 5.118 11.433 11.433 0 2.73-.958 5.234-2.553 7.2-.799.442-1.323-.678-2.867-.605-1.18.055-1.386 1.268-2.541.915-.864-.263-.66-.973-1.788-1.254-.6-.149-1.162.077-1.566.344-.823.545-1.31.062-1.742-.568l-.068-.1-.062-.093-.063-.098-.055-.086-.051-.08c-.24-.369-.483-.72-.781-.891-.238-.137-.555-.187-.896-.214l-.172-.011-.116-.007-.088-.004-.087-.004-.117-.006-.056-.004-.11-.006-.054-.005c-.768-.058-1.436-.235-1.376-1.225.03-.484-.055-1.083-.485-1.529-.807-.835-1.32-.305-1.98-.92-.882-.825.065-1.61-.477-2.66-.71-1.374-1.946-1.266-1.957-2.184 1.647-4.29 5.804-7.338 10.675-7.338zM22.7 29.683c.815.563 1.569.999 2.464 1.422a.209.209 0 0 1 .092.291c-.813 1.4-3.66-.244-2.854-1.648.06-.104.199-.134.298-.065zm-1.932.28c.585.413.92 1.005.922 1.531-.46.366-1.212.343-1.816-.094-.672-.485-.917-1.305-.575-1.873.459-.043.996.102 1.47.436zm9.634.078a1.223 1.223 0 0 0-.406.168c.013.451.474.805 1.03.791.328-.008.615-.141.794-.34a.582.582 0 0 0-.04-.113c-.188-.409-.805-.635-1.378-.506zm14.39-.69c-.396.458-.812.898-1.248 1.32H38.48c.222-.427.42-.868.592-1.32zm-19.094-.56c-.068.453.24.952.77 1.19.59.264 1.24.11 1.49-.342-.15-.327-.457-.633-.868-.822-.506-.234-1.037-.23-1.392-.026zm-6.463-2.506c.4.674 1.172 1.508 1.685 1.966.107.095.09.272-.037.335-1.292.638-2.851-1.252-1.978-2.332.088-.108.259-.089.33.03zm3.423.054-.157.006c-.266.443-.075 1.082.448 1.46.471.34 1.058.359 1.417.073-.002-.41-.263-.871-.72-1.193a1.872 1.872 0 0 0-.826-.333l-.162-.013zm-6.25-.5c.632.009 1.274.67 1.436 1.478.044.22.048.428.017.615-.586.242-1.303-.146-1.603-.868-.176-.423-.17-.867-.016-1.211a.857.857 0 0 1 .166-.014zm30.83-.006c-.246.451-.512.89-.792 1.32h-6.755c.08-.434.139-.874.174-1.32zm-27.23-2.531a.67.67 0 0 0-.13.011c-.118.27-.122.615.017.945.237.562.797.861 1.253.67.023-.145.02-.308-.016-.48-.129-.628-.632-1.142-1.125-1.146zm-3.05-.987c.216.74.613 1.609 1.116 2.155a.206.206 0 0 1-.072.326c-.612.275-1.382-.35-1.65-.923-.242-.517-.13-1.276.27-1.65a.205.205 0 0 1 .336.092zm31.78 0c-.142.447-.302.886-.474 1.32h-8.41c-.04-.448-.104-.888-.19-1.32zm.77-3.518c-.057.444-.125.885-.21 1.32H39.016c-.18-.453-.382-.894-.61-1.32z" id="h1j6qtqiwc"/>
    </defs>
    <g fill="none" fill-rule="evenodd">
        <path d="M0 0h57v57H0z"/>
        <path fill="url(#5kxkofuufa)" d="M0 0h57v57H0z"/>
        <g>
            <use fill="#000" filter="url(#ziemvxmlzb)" xlink:href="#h1j6qtqiwc"/>
            <use fill="#FFF" xlink:href="#h1j6qtqiwc"/>
        </g>
        <path d="M22.94 37.843v1.407c0 .056.022.11.062.149a9.677 9.677 0 0 1 2.935 6.94v1.505h2.442V46.34a9.676 9.676 0 0 1 2.934-6.941.208.208 0 0 0 .063-.15v-1.406a12.72 12.72 0 0 1-4.218.717 12.72 12.72 0 0 1-4.219-.717" fill="#F6711B"/>
    </g>
</svg>
