<svg width="16" height="16" viewBox="0 0 16 16" xmlns="http://www.w3.org/2000/svg" xmlns:xlink="http://www.w3.org/1999/xlink">
    <defs>
        <linearGradient x1="147.304%" y1="-50.757%" x2="23.38%" y2="87.139%" id="9mcdfisuka">
            <stop stop-color="#24D08D" offset="0%"/>
            <stop stop-color="#0A7A4D" offset="100%"/>
        </linearGradient>
        <filter x="-192.1%" y="-291.3%" width="484.2%" height="682.5%" filterUnits="objectBoundingBox" id="4dtq5k0neb">
            <feOffset in="SourceAlpha" result="shadowOffsetOuter1"/>
            <feGaussianBlur stdDeviation="6" in="shadowOffsetOuter1" result="shadowBlurOuter1"/>
            <feColorMatrix values="0 0 0 0 0 0 0 0 0 0 0 0 0 0 0 0 0 0 0.0767233255 0" in="shadowBlurOuter1"/>
        </filter>
        <path d="M8.881 9.721a.239.239 0 0 1 .02.043.435.435 0 0 1-.297.166c-.217.028-.412-.092-.436-.268a.485.485 0 0 1 .152-.082c.22-.074.47-.011.561.141zm-1.615-.48a.631.631 0 0 1 .313.295c-.09.163-.324.219-.536.123-.191-.085-.302-.265-.278-.428.128-.073.32-.075.501.01zm2.464-.08c-.035.15-.204.284-.363.298-.177.015-.437-.084-.456-.272a.058.058 0 0 1 .069-.063c.203.046.47.02.68-.03.042-.01.08.026.07.068zm-2.097-.2.028.002c.184.06.495.131.715.134.039 0 .068.04.054.076-.14.364-.819.25-.845-.154a.054.054 0 0 1 .023-.048l.025-.01zm-.01-5.207a3.21 3.21 0 0 1 2.493 5.23c-.224.125-.372-.19-.805-.17-.331.016-.389.356-.713.258-.243-.074-.186-.274-.502-.352a.558.558 0 0 0-.44.096c-.216.143-.35.034-.465-.126l-.043-.062-.017-.026-.018-.027-.015-.024-.015-.022c-.067-.104-.135-.203-.219-.25a.545.545 0 0 0-.216-.058l-.084-.006-.032-.002-.025-.001-.024-.001-.033-.002h-.016l-.03-.003h-.016c-.215-.017-.403-.067-.386-.345a.558.558 0 0 0-.136-.43c-.227-.234-.37-.085-.556-.258-.248-.23.018-.451-.134-.746-.2-.386-.546-.355-.55-.613a3.21 3.21 0 0 1 2.997-2.06zM6.342 8.322l.03.01c.229.158.44.28.692.4.03.014.043.052.026.081-.229.393-1.028-.068-.802-.463l.023-.022.03-.006zm-.512.089c.164.116.258.282.258.43-.129.102-.34.096-.51-.027-.188-.136-.257-.366-.16-.526a.631.631 0 0 1 .412.123zm2.785.012-.081.01a.343.343 0 0 0-.114.047c.004.126.133.226.29.222a.31.31 0 0 0 .222-.096.163.163 0 0 0-.011-.031c-.035-.077-.124-.13-.227-.147l-.08-.005zm3.958-.184a5.666 5.666 0 0 1-.35.37h-1.421c.062-.12.118-.243.166-.37zm-5.36-.157c-.019.127.068.267.217.334.165.074.347.03.418-.096a.492.492 0 0 0-.244-.231c-.142-.066-.29-.064-.39-.007zM5.4 7.378c.113.19.33.424.473.552.03.027.026.076-.01.094-.363.18-.8-.351-.555-.654.024-.03.072-.025.092.008zm.995.018h-.078c-.075.123-.021.303.126.409.132.096.297.1.398.02-.001-.115-.074-.244-.202-.334a.545.545 0 0 0-.162-.08l-.082-.015zm-1.788-.143c.177.002.357.188.403.415.012.062.013.12.005.173-.165.068-.366-.041-.45-.244a.434.434 0 0 1-.005-.34.24.24 0 0 1 .047-.004zm8.654-.002c-.07.127-.144.25-.222.37H11.14c.023-.12.04-.244.05-.37zm-7.644-.71a.188.188 0 0 0-.036.003.338.338 0 0 0 .005.265c.066.158.223.242.351.188a.375.375 0 0 0-.004-.134c-.036-.177-.178-.32-.316-.322zm-.856-.277c.06.207.172.452.313.605a.058.058 0 0 1-.02.091c-.172.077-.388-.098-.463-.259-.068-.145-.036-.358.076-.463a.058.058 0 0 1 .094.026zm8.92 0c-.039.125-.084.249-.132.37h-2.36a3.578 3.578 0 0 0-.054-.37zm.217-.988a5.65 5.65 0 0 1-.059.37h-2.886a3.564 3.564 0 0 0-.171-.37z" id="dx4z68cf6c"/>
    </defs>
    <g fill="none" fill-rule="evenodd">
        <path d="M0 0h16v16H0z"/>
        <path fill="url(#9mcdfisuka)" d="M0 0h16v16H0z"/>
        <g>
            <use fill="#000" filter="url(#4dtq5k0neb)" xlink:href="#dx4z68cf6c"/>
            <use fill="#FFF" xlink:href="#dx4z68cf6c"/>
        </g>
        <path d="M6.44 10.623v.394c0 .016.006.031.017.042.526.512.823 1.215.823 1.949v.422h.686v-.422c0-.734.297-1.437.824-1.949a.058.058 0 0 0 .017-.042v-.394a3.57 3.57 0 0 1-2.368 0" fill="#F6711B"/>
    </g>
</svg>
