<svg width="32" height="32" viewBox="0 0 32 32" xmlns="http://www.w3.org/2000/svg" xmlns:xlink="http://www.w3.org/1999/xlink">
    <defs>
        <linearGradient x1="147.304%" y1="-50.757%" x2="23.38%" y2="87.139%" id="s966ty5jza">
            <stop stop-color="#24D08D" offset="0%"/>
            <stop stop-color="#0A7A4D" offset="100%"/>
        </linearGradient>
        <filter x="-96%" y="-145.6%" width="292.1%" height="391.3%" filterUnits="objectBoundingBox" id="wloz20o7eb">
            <feOffset in="SourceAlpha" result="shadowOffsetOuter1"/>
            <feGaussianBlur stdDeviation="6" in="shadowOffsetOuter1" result="shadowBlurOuter1"/>
            <feColorMatrix values="0 0 0 0 0 0 0 0 0 0 0 0 0 0 0 0 0 0 0.0767233255 0" in="shadowBlurOuter1"/>
        </filter>
        <path d="M17.762 19.443c.016.028.03.056.04.084a.87.87 0 0 1-.594.333c-.435.056-.825-.183-.872-.536a.97.97 0 0 1 .304-.165c.439-.148.94-.021 1.122.284zm-3.23-.963c.296.137.518.357.626.592-.181.326-.648.437-1.073.247-.382-.171-.604-.53-.555-.857.256-.146.638-.15 1.003.018zm4.928-.157c-.07.3-.407.568-.727.595-.354.03-.873-.169-.911-.543a.115.115 0 0 1 .138-.127c.407.092.94.041 1.361-.062a.115.115 0 0 1 .14.137zm-4.183-.403.046.006c.366.121.989.262 1.429.268.078 0 .135.078.107.151-.28.728-1.636.5-1.689-.307a.11.11 0 0 1 .065-.106l.042-.012zm-.03-10.412a6.419 6.419 0 0 1 4.985 10.46c-.449.25-.743-.38-1.61-.339-.662.031-.778.712-1.426.514-.485-.147-.371-.546-1.004-.704-.337-.084-.652.043-.879.193-.452.299-.723.047-.962-.295l-.054-.08-.035-.052-.036-.055-.03-.048-.03-.045c-.134-.207-.27-.404-.438-.5-.124-.073-.287-.102-.464-.118l-.135-.01-.065-.003-.05-.002-.049-.003-.065-.003-.031-.002-.062-.004-.03-.002c-.432-.033-.807-.132-.773-.688.017-.272-.031-.608-.272-.858-.453-.469-.741-.171-1.112-.517-.495-.463.036-.903-.268-1.493-.398-.772-1.092-.711-1.098-1.226a6.42 6.42 0 0 1 5.992-4.12zm-2.503 9.156c.457.316.88.56 1.383.798a.117.117 0 0 1 .052.164c-.456.786-2.055-.137-1.603-.925a.117.117 0 0 1 .168-.037zm-1.085.157c.329.232.516.565.518.86-.258.205-.68.192-1.02-.053-.377-.272-.514-.732-.323-1.052.258-.024.56.058.825.245zm5.409.044a.686.686 0 0 0-.228.094c.007.254.266.453.579.445a.62.62 0 0 0 .445-.192.327.327 0 0 0-.022-.063c-.106-.23-.453-.356-.774-.284zm8.079-.387c-.223.257-.457.504-.701.74h-2.842a7.11 7.11 0 0 0 .332-.74zm-10.72-.314c-.038.254.135.534.433.667.33.149.695.062.836-.192a.984.984 0 0 0-.487-.461c-.285-.131-.583-.129-.782-.014zm-3.628-1.408c.224.379.658.847.946 1.104.06.054.05.153-.021.188-.726.359-1.601-.702-1.11-1.309.049-.06.145-.05.185.017zm1.957.033-.124.001c-.15.249-.042.608.252.82.264.191.594.201.795.041-.001-.23-.148-.49-.404-.67a1.073 1.073 0 0 0-.39-.174l-.129-.018zm-3.544-.283c.354.005.715.376.806.83.024.124.027.24.01.345-.33.136-.732-.082-.9-.487a.869.869 0 0 1-.01-.68.481.481 0 0 1 .094-.008zm17.308-.003c-.138.253-.288.5-.445.74h-3.792c.045-.243.078-.49.098-.74zm-15.288-1.421a.376.376 0 0 0-.073.006.677.677 0 0 0 .01.53c.133.316.448.484.704.377a.75.75 0 0 0-.01-.27c-.072-.353-.354-.64-.63-.643zm-1.712-.554c.121.415.344.903.627 1.21a.116.116 0 0 1-.04.182c-.344.155-.776-.196-.927-.518-.136-.29-.073-.716.152-.926a.115.115 0 0 1 .188.052zm17.842 0c-.08.25-.17.497-.266.74h-4.722a7.156 7.156 0 0 0-.106-.74zm.432-1.975a11.3 11.3 0 0 1-.118.74h-5.773a7.128 7.128 0 0 0-.342-.74z" id="q6pkpb4tic"/>
    </defs>
    <g fill="none" fill-rule="evenodd">
        <path d="M0 0h32v32H0z"/>
        <path fill="url(#s966ty5jza)" d="M0 0h32v32H0z"/>
        <g>
            <use fill="#000" filter="url(#wloz20o7eb)" xlink:href="#q6pkpb4tic"/>
            <use fill="#FFF" xlink:href="#q6pkpb4tic"/>
        </g>
        <path d="M12.878 21.245v.79c0 .031.013.062.036.084a5.433 5.433 0 0 1 1.647 3.896v.845h1.371v-.845c0-1.468.594-2.874 1.647-3.896a.117.117 0 0 0 .036-.084v-.79a7.141 7.141 0 0 1-4.737 0" fill="#F6711B"/>
    </g>
</svg>
