<svg width="144" height="144" viewBox="0 0 144 144" xmlns="http://www.w3.org/2000/svg" xmlns:xlink="http://www.w3.org/1999/xlink">
    <defs>
        <linearGradient x1="147.304%" y1="-50.757%" x2="23.38%" y2="87.139%" id="4hv5sa3jaa">
            <stop stop-color="#24D08D" offset="0%"/>
            <stop stop-color="#0A7A4D" offset="100%"/>
        </linearGradient>
        <filter x="-21.3%" y="-32.4%" width="142.7%" height="164.7%" filterUnits="objectBoundingBox" id="3e570q545b">
            <feOffset in="SourceAlpha" result="shadowOffsetOuter1"/>
            <feGaussianBlur stdDeviation="6" in="shadowOffsetOuter1" result="shadowBlurOuter1"/>
            <feColorMatrix values="0 0 0 0 0 0 0 0 0 0 0 0 0 0 0 0 0 0 0.0767233255 0" in="shadowBlurOuter1"/>
        </filter>
        <path d="M79.93 87.492c.073.125.134.252.18.382-.56.77-1.524 1.345-2.672 1.495-1.959.255-3.714-.824-3.925-2.411.37-.303.83-.559 1.368-.741 1.972-.666 4.232-.096 5.048 1.275zm-14.532-4.33c1.33.613 2.325 1.605 2.81 2.664-.812 1.465-2.914 1.966-4.824 1.109-1.718-.771-2.719-2.389-2.5-3.856 1.154-.659 2.873-.675 4.514.083zm22.172-.708c-.314 1.348-1.832 2.553-3.27 2.677-1.592.137-3.93-.758-4.102-2.444a.52.52 0 0 1 .622-.57c1.83.412 4.234.184 6.125-.279.37-.09.712.245.625.616zm-18.617-1.787c1.649.545 4.45 1.18 6.43 1.205.352.004.61.354.484.682-1.26 3.275-7.364 2.252-7.6-1.382-.024-.36.343-.618.686-.505zm-.344-46.88c15.952 0 28.884 12.93 28.884 28.883a28.76 28.76 0 0 1-6.45 18.19c-2.017 1.117-3.343-1.713-7.242-1.53-2.981.141-3.503 3.204-6.42 2.314-2.182-.664-1.67-2.458-4.516-3.168-1.518-.377-2.936.195-3.957.87-2.126 1.406-3.364.1-4.476-1.546l-.098-.146-.154-.234-.161-.247-.139-.215-.13-.201c-.604-.934-1.22-1.82-1.972-2.254-.636-.367-1.5-.488-2.42-.551l-.278-.018-.293-.016-.221-.012-.222-.01-.295-.015-.14-.008-.28-.017-.135-.01c-1.94-.148-3.629-.595-3.476-3.098.074-1.221-.14-2.736-1.226-3.861-2.038-2.11-3.334-.77-5-2.326-2.23-2.082.161-4.065-1.207-6.719-1.792-3.472-4.915-3.198-4.944-5.517 4.162-10.84 14.663-18.539 26.968-18.539zm-11.26 41.2a42.157 42.157 0 0 0 6.224 3.594c.274.13.386.473.233.736-2.055 3.538-9.25-.616-7.212-4.164a.528.528 0 0 1 .754-.166zm-4.882.71c1.478 1.042 2.323 2.538 2.33 3.867-1.162.924-3.064.866-4.59-.237-1.697-1.226-2.315-3.297-1.453-4.733 1.16-.11 2.517.258 3.713 1.103zm24.338.196c-.395.09-.74.236-1.025.424.032 1.14 1.197 2.035 2.604 2 .826-.021 1.55-.358 2.004-.863a1.47 1.47 0 0 0-.1-.283c-.476-1.033-2.036-1.604-3.483-1.278zm36.356-1.744a50.99 50.99 0 0 1-3.155 3.333h-12.79c.56-1.077 1.06-2.189 1.496-3.333zm-48.24-1.413c-.172 1.144.608 2.405 1.948 3.005 1.49.668 3.128.278 3.761-.864-.378-.826-1.154-1.598-2.191-2.077-1.28-.59-2.62-.578-3.519-.064zm-16.327-6.332c1.01 1.703 2.96 3.811 4.257 4.966.27.241.23.688-.094.848-3.265 1.612-7.204-3.163-4.997-5.892.222-.273.654-.224.834.078zm8.251.152c-.672 1.119-.19 2.734 1.133 3.69 1.19.86 2.672.904 3.578.184-.006-1.036-.665-2.203-1.816-3.015-.933-.659-1.99-.945-2.895-.86zm-15.393-1.28c1.596.023 3.219 1.695 3.628 3.735.11.557.12 1.083.043 1.555-1.48.611-3.292-.37-4.05-2.193-.446-1.069-.429-2.191-.042-3.06.135-.026.275-.038.421-.036zm77.888-.014a50.54 50.54 0 0 1-2.002 3.333h-17.066c.203-1.093.35-2.205.44-3.333zm-68.795-6.394c-.113 0-.222.009-.328.029-.298.68-.308 1.554.044 2.385.598 1.42 2.015 2.177 3.166 1.695.059-.368.05-.778-.04-1.212-.326-1.589-1.597-2.886-2.842-2.897zm-7.705-2.494c.546 1.869 1.549 4.066 2.821 5.445.24.26.141.678-.182.823-1.546.694-3.49-.883-4.168-2.331-.612-1.307-.328-3.224.683-4.17a.518.518 0 0 1 .846.233zm80.287 0a50.157 50.157 0 0 1-1.197 3.334h-21.246a32.2 32.2 0 0 0-.478-3.333zm1.946-8.887a50.851 50.851 0 0 1-.53 3.333H98.566a32.075 32.075 0 0 0-1.54-3.333z" id="e4cpyacndc"/>
    </defs>
    <g fill="none" fill-rule="evenodd">
        <path d="M0 0h144v144H0z"/>
        <path fill="url(#4hv5sa3jaa)" d="M0 0h144v144H0z"/>
        <g>
            <use fill="#000" filter="url(#3e570q545b)" xlink:href="#e4cpyacndc"/>
            <use fill="#FFF" xlink:href="#e4cpyacndc"/>
        </g>
        <path d="M57.952 95.603v3.554c0 .141.058.278.159.377a24.448 24.448 0 0 1 7.413 17.535v3.801h6.17v-3.801a24.444 24.444 0 0 1 7.413-17.535c.102-.1.159-.236.159-.377v-3.554a32.135 32.135 0 0 1-10.657 1.813c-3.736 0-7.32-.643-10.657-1.813" fill="#F6711B"/>
    </g>
</svg>
