<svg width="152" height="152" viewBox="0 0 152 152" xmlns="http://www.w3.org/2000/svg" xmlns:xlink="http://www.w3.org/1999/xlink">
    <defs>
        <linearGradient x1="147.304%" y1="-50.757%" x2="23.38%" y2="87.139%" id="x05x2f5l1a">
            <stop stop-color="#24D08D" offset="0%"/>
            <stop stop-color="#0A7A4D" offset="100%"/>
        </linearGradient>
        <filter x="-20.2%" y="-30.7%" width="140.4%" height="161.3%" filterUnits="objectBoundingBox" id="8qdn0yba2b">
            <feOffset in="SourceAlpha" result="shadowOffsetOuter1"/>
            <feGaussianBlur stdDeviation="6" in="shadowOffsetOuter1" result="shadowBlurOuter1"/>
            <feColorMatrix values="0 0 0 0 0 0 0 0 0 0 0 0 0 0 0 0 0 0 0.0767233255 0" in="shadowBlurOuter1"/>
        </filter>
        <path d="M84.37 92.352c.078.133.142.267.19.404-.59.813-1.608 1.42-2.82 1.578-2.067.269-3.92-.87-4.143-2.545.391-.32.877-.59 1.444-.782 2.082-.703 4.467-.102 5.329 1.345zm-15.34-4.57c1.405.647 2.455 1.694 2.968 2.812-.857 1.546-3.077 2.075-5.093 1.17-1.814-.813-2.87-2.52-2.638-4.07 1.218-.695 3.032-.712 4.764.088zm23.405-.747c-.331 1.423-1.934 2.695-3.451 2.826-1.682.144-4.149-.8-4.33-2.58-.039-.371.29-.683.656-.601 1.932.434 4.469.193 6.465-.295a.546.546 0 0 1 .66.65zm-19.651-1.886c1.74.575 4.697 1.245 6.787 1.271.371.005.643.374.51.72-1.33 3.457-7.773 2.377-8.022-1.458-.024-.38.363-.653.725-.533zm-.363-49.486c16.838 0 30.488 13.65 30.488 30.489a30.357 30.357 0 0 1-6.809 19.2c-2.129 1.18-3.528-1.808-7.643-1.614-3.147.148-3.698 3.38-6.778 2.442-2.302-.701-1.761-2.595-4.766-3.344-1.602-.398-3.1.205-4.176.917-2.247 1.486-3.554.104-4.728-1.635l-.1-.15-.164-.246-.17-.262-.146-.227-.137-.212c-.638-.986-1.287-1.92-2.082-2.379-.671-.387-1.582-.515-2.554-.582l-.293-.018-.31-.017-.234-.013-.233-.01-.312-.016-.148-.01-.295-.017-.143-.011c-2.047-.156-3.83-.628-3.67-3.27.08-1.288-.147-2.887-1.293-4.075-1.113-1.152-2.016-1.33-2.872-1.46l-.34-.052c-.678-.108-1.338-.264-2.066-.943-2.354-2.198.17-4.291-1.274-7.092-1.892-3.665-5.188-3.377-5.218-5.824C48.347 43.79 59.432 35.663 72.42 35.663zm-11.887 43.49a44.499 44.499 0 0 0 6.57 3.794c.29.137.408.5.247.777-2.169 3.734-9.764-.65-7.613-4.395a.557.557 0 0 1 .796-.176zm-5.152.749c1.56 1.1 2.452 2.68 2.459 4.082-1.226.975-3.234.914-4.845-.25-1.79-1.294-2.443-3.48-1.533-4.996 1.224-.115 2.656.272 3.919 1.164zm25.69.208a3.26 3.26 0 0 0-1.082.447c.034 1.204 1.263 2.148 2.748 2.11.872-.021 1.637-.377 2.116-.91-.024-.1-.059-.2-.105-.299-.503-1.09-2.15-1.692-3.677-1.348zm38.375-1.841a53.823 53.823 0 0 1-3.33 3.518h-13.5a33.772 33.772 0 0 0 1.579-3.518zm-50.92-1.492c-.18 1.207.642 2.538 2.057 3.172 1.572.705 3.302.293 3.97-.912-.4-.872-1.219-1.687-2.313-2.192-1.35-.624-2.765-.61-3.714-.068zm-17.234-6.684c1.067 1.798 3.126 4.023 4.494 5.242.284.254.242.726-.1.895-3.445 1.702-7.603-3.338-5.273-6.22.234-.288.69-.236.88.083zm8.71.16c-.71 1.181-.2 2.886 1.196 3.895 1.255.907 2.82.955 3.776.195-.005-1.093-.701-2.325-1.917-3.183-.984-.695-2.1-.997-3.055-.907zm-16.248-1.35c1.685.024 3.398 1.788 3.83 3.942.116.588.126 1.143.044 1.641-1.562.646-3.475-.39-4.275-2.315-.47-1.128-.452-2.312-.043-3.23.142-.027.29-.04.444-.038zm82.215-.015a53.347 53.347 0 0 1-2.113 3.518h-18.014c.214-1.154.37-2.328.465-3.518zm-72.617-6.75c-.12 0-.235.01-.346.031-.315.718-.325 1.64.046 2.518.631 1.499 2.127 2.298 3.342 1.789a3.566 3.566 0 0 0-.042-1.28c-.344-1.677-1.686-3.046-3-3.058zm-8.133-2.632c.576 1.973 1.635 4.291 2.978 5.748.253.274.149.715-.192.868-1.633.733-3.685-.932-4.4-2.46-.646-1.38-.346-3.404.72-4.403a.546.546 0 0 1 .894.247zm84.748 0a52.943 52.943 0 0 1-1.264 3.519h-22.426a33.99 33.99 0 0 0-.505-3.518zm2.053-9.38a53.675 53.675 0 0 1-.559 3.518h-27.42a33.857 33.857 0 0 0-1.626-3.518z" id="wadk483nsc"/>
    </defs>
    <g fill="none" fill-rule="evenodd">
        <path fill="#FFF" d="M-323-434h1440v884H-323z"/>
        <path d="M0 0h152v152H0z"/>
        <path fill="url(#x05x2f5l1a)" d="M0 0h152v152H0z"/>
        <g>
            <use fill="#000" filter="url(#8qdn0yba2b)" xlink:href="#wadk483nsc"/>
            <use fill="#FFF" xlink:href="#wadk483nsc"/>
        </g>
        <path d="M61.171 100.914v3.752c0 .149.062.293.168.397a25.806 25.806 0 0 1 7.825 18.51v4.012h6.514v-4.013c0-6.972 2.821-13.65 7.823-18.509a.555.555 0 0 0 .169-.397v-3.752a33.92 33.92 0 0 1-11.25 1.914c-3.943 0-7.727-.679-11.249-1.914" fill="#F6711B"/>
    </g>
</svg>
