<svg width="114" height="114" viewBox="0 0 114 114" xmlns="http://www.w3.org/2000/svg" xmlns:xlink="http://www.w3.org/1999/xlink">
    <defs>
        <linearGradient x1="147.304%" y1="-50.757%" x2="23.38%" y2="87.139%" id="7ze4j093qa">
            <stop stop-color="#24D08D" offset="0%"/>
            <stop stop-color="#0A7A4D" offset="100%"/>
        </linearGradient>
        <filter x="-27%" y="-40.9%" width="153.9%" height="181.8%" filterUnits="objectBoundingBox" id="k2iek41o6b">
            <feOffset in="SourceAlpha" result="shadowOffsetOuter1"/>
            <feGaussianBlur stdDeviation="6" in="shadowOffsetOuter1" result="shadowBlurOuter1"/>
            <feColorMatrix values="0 0 0 0 0 0 0 0 0 0 0 0 0 0 0 0 0 0 0.0767233255 0" in="shadowBlurOuter1"/>
        </filter>
        <path d="M63.277 69.264c.059.1.107.2.143.303-.443.61-1.206 1.065-2.115 1.183-1.55.202-2.94-.652-3.107-1.909.293-.24.657-.442 1.083-.586 1.561-.527 3.35-.076 3.996 1.01zm-11.504-3.427c1.053.485 1.841 1.27 2.226 2.109-.643 1.16-2.308 1.556-3.82.877-1.36-.61-2.153-1.89-1.979-3.052.914-.522 2.274-.535 3.573.066zm17.554-.561c-.25 1.068-1.451 2.022-2.59 2.12-1.26.108-3.11-.6-3.247-1.935a.411.411 0 0 1 .492-.451c1.45.326 3.352.145 4.85-.221a.41.41 0 0 1 .495.487zm-14.74-1.414c1.306.43 3.523.934 5.091.953.279.004.483.28.383.54-.997 2.593-5.83 1.783-6.017-1.093-.018-.286.272-.49.544-.4zm-.271-37.114c12.628 0 22.866 10.237 22.866 22.866a22.768 22.768 0 0 1-5.107 14.4c-1.596.885-2.646-1.356-5.732-1.21-2.36.11-2.774 2.535-5.084 1.83-1.726-.525-1.32-1.945-3.574-2.507-1.202-.299-2.325.154-3.133.688-1.677 1.11-2.656.087-3.533-1.208l-.088-.13-.122-.186-.127-.196-.11-.17-.103-.16c-.479-.739-.965-1.44-1.562-1.783-.492-.284-1.156-.382-1.867-.433l-.268-.018-.232-.013-.176-.009-.175-.008-.233-.012-.112-.006-.22-.014-.108-.008c-1.535-.117-2.873-.47-2.752-2.452.06-.967-.11-2.166-.97-3.057-1.614-1.67-2.64-.61-3.959-1.841-1.765-1.648.128-3.218-.955-5.32-1.42-2.748-3.891-2.531-3.914-4.367 3.294-8.582 11.608-14.676 21.35-14.676zM45.4 59.365a33.374 33.374 0 0 0 4.927 2.845.418.418 0 0 1 .185.583c-1.627 2.8-7.323-.488-5.71-3.297a.418.418 0 0 1 .598-.13zm-3.864.561c1.17.825 1.838 2.01 1.843 3.062-.919.731-2.425.686-3.633-.187-1.343-.97-1.832-2.61-1.15-3.748.918-.086 1.993.204 2.94.873zm19.267.156c-.313.07-.586.187-.812.336.026.902.948 1.61 2.062 1.583.654-.017 1.228-.284 1.586-.683a1.164 1.164 0 0 0-.078-.224c-.378-.818-1.613-1.27-2.758-1.012zm28.781-1.38a40.368 40.368 0 0 1-2.497 2.638H76.963c.442-.853.839-1.733 1.184-2.638zm-38.19-1.12c-.135.906.482 1.904 1.543 2.38 1.179.529 2.476.22 2.978-.684-.3-.654-.914-1.266-1.735-1.644-1.013-.468-2.074-.458-2.786-.051zM38.47 52.57c.8 1.348 2.344 3.017 3.37 3.932.214.19.182.544-.074.67-2.585 1.277-5.703-2.503-3.956-4.664.176-.216.517-.177.66.062zm6.73.109-.198.01c-.532.887-.15 2.166.897 2.922.942.68 2.115.716 2.832.146-.004-.82-.525-1.744-1.437-2.387-.604-.426-1.274-.656-1.89-.688l-.203-.003zm-12.384-1.001c1.264.017 2.548 1.34 2.872 2.956.088.44.096.857.034 1.23-1.171.485-2.606-.292-3.207-1.736-.352-.846-.338-1.734-.032-2.422.107-.02.218-.03.333-.028zm61.661-.012a40.01 40.01 0 0 1-1.584 2.638h-13.51c.16-.865.277-1.745.348-2.638zm-54.462-5.062c-.09 0-.176.007-.26.023-.236.538-.243 1.23.035 1.888.473 1.124 1.595 1.723 2.506 1.342.047-.292.04-.616-.031-.96-.259-1.258-1.265-2.284-2.25-2.293zm-6.1-1.974c.432 1.479 1.226 3.218 2.234 4.31a.412.412 0 0 1-.145.652c-1.224.55-2.763-.7-3.3-1.846-.484-1.035-.26-2.552.541-3.302a.41.41 0 0 1 .67.186zm63.56 0a39.707 39.707 0 0 1-.947 2.638h-16.82a25.492 25.492 0 0 0-.378-2.638zm1.541-7.036c-.113.888-.25 1.77-.42 2.639H78.032a25.393 25.393 0 0 0-1.219-2.639z" id="spukavc99c"/>
    </defs>
    <g fill="none" fill-rule="evenodd">
        <path d="M0 0h114v114H0z"/>
        <path fill="url(#7ze4j093qa)" d="M0 0h114v114H0z"/>
        <g>
            <use fill="#000" filter="url(#k2iek41o6b)" xlink:href="#spukavc99c"/>
            <use fill="#FFF" xlink:href="#spukavc99c"/>
        </g>
        <path d="M45.878 75.685V78.5c0 .112.047.22.127.299a19.355 19.355 0 0 1 5.868 13.881v3.01h4.885v-3.01c0-5.23 2.116-10.237 5.868-13.881a.416.416 0 0 0 .126-.299v-2.814a25.44 25.44 0 0 1-8.436 1.436c-2.958 0-5.796-.51-8.438-1.436" fill="#F6711B"/>
    </g>
</svg>
