<svg width="120" height="120" viewBox="0 0 120 120" xmlns="http://www.w3.org/2000/svg" xmlns:xlink="http://www.w3.org/1999/xlink">
    <defs>
        <linearGradient x1="147.304%" y1="-50.757%" x2="23.38%" y2="87.139%" id="hisux9r3xa">
            <stop stop-color="#24D08D" offset="0%"/>
            <stop stop-color="#0A7A4D" offset="100%"/>
        </linearGradient>
        <filter x="-25.6%" y="-38.8%" width="151.2%" height="177.7%" filterUnits="objectBoundingBox" id="1udp230k6b">
            <feOffset in="SourceAlpha" result="shadowOffsetOuter1"/>
            <feGaussianBlur stdDeviation="6" in="shadowOffsetOuter1" result="shadowBlurOuter1"/>
            <feColorMatrix values="0 0 0 0 0 0 0 0 0 0 0 0 0 0 0 0 0 0 0.0767233255 0" in="shadowBlurOuter1"/>
        </filter>
        <path d="M66.608 72.91c.061.105.112.21.15.318-.466.642-1.27 1.121-2.227 1.246-1.631.212-3.094-.687-3.27-2.01a3.639 3.639 0 0 1 1.14-.617c1.643-.554 3.526-.08 4.207 1.063zm-12.11-3.608c1.108.51 1.938 1.337 2.343 2.22-.677 1.22-2.43 1.638-4.021.924-1.432-.643-2.266-1.99-2.083-3.213.961-.55 2.394-.563 3.76.069zm18.477-.59c-.261 1.123-1.527 2.128-2.725 2.23-1.327.115-3.275-.631-3.418-2.036a.433.433 0 0 1 .518-.475c1.525.343 3.528.153 5.104-.232a.431.431 0 0 1 .521.513zm-15.514-1.49c1.374.454 3.708.984 5.358 1.004.293.004.508.295.403.569-1.05 2.729-6.136 1.877-6.333-1.151-.02-.3.286-.516.572-.421zm-.287-39.067c13.294 0 24.07 10.776 24.07 24.07 0 5.746-2.016 11.02-5.375 15.158-1.681.931-2.786-1.427-6.035-1.274-2.484.117-2.919 2.669-5.35 1.928-1.818-.554-1.391-2.049-3.763-2.64-1.265-.315-2.447.162-3.297.724-1.766 1.168-2.796.092-3.72-1.272l-.092-.137-.13-.195-.133-.206-.115-.18-.108-.167c-.505-.778-1.017-1.516-1.645-1.878-.517-.3-1.217-.402-1.965-.456l-.282-.018-.245-.014-.184-.01-.185-.008-.245-.012-.118-.007-.232-.014-.113-.01c-1.617-.122-3.024-.495-2.897-2.58.062-1.018-.117-2.28-1.022-3.218-1.698-1.758-2.778-.642-4.166-1.938-1.859-1.735.134-3.388-1.006-5.6-1.494-2.892-4.096-2.665-4.12-4.597 3.468-9.033 12.219-15.449 22.473-15.449zM47.79 62.49a35.13 35.13 0 0 0 5.187 2.994.44.44 0 0 1 .195.614c-1.713 2.948-7.708-.514-6.01-3.47a.44.44 0 0 1 .628-.138zm-4.067.59c1.23.869 1.935 2.116 1.94 3.223-.967.77-2.552.722-3.824-.197-1.414-1.022-1.929-2.748-1.21-3.945.966-.09 2.097.215 3.094.92zm20.281.164a2.574 2.574 0 0 0-.854.353c.027.95.997 1.696 2.17 1.667.688-.018 1.292-.298 1.67-.719a1.226 1.226 0 0 0-.083-.236c-.397-.86-1.697-1.336-2.903-1.065zm30.297-1.453a42.492 42.492 0 0 1-2.63 2.778H81.013c.466-.898.883-1.825 1.247-2.778zm-40.2-1.178c-.143.953.506 2.004 1.623 2.505 1.241.557 2.607.231 3.135-.72-.316-.689-.963-1.332-1.827-1.731-1.066-.492-2.183-.482-2.932-.054zm-13.606-5.276c.842 1.42 2.467 3.176 3.547 4.138.225.2.192.573-.078.706-2.72 1.344-6.003-2.635-4.164-4.91.185-.227.545-.186.695.066zm7.085.114-.209.012c-.56.933-.159 2.279.944 3.075.99.716 2.226.754 2.981.153-.004-.862-.553-1.835-1.513-2.512-.636-.449-1.341-.69-1.99-.724l-.213-.004zm-13.037-1.054c1.33.019 2.683 1.412 3.023 3.112.093.464.101.903.036 1.296-1.233.51-2.743-.308-3.375-1.828-.371-.89-.357-1.825-.034-2.55.112-.02.229-.03.35-.03zm64.907-.012c-.519.95-1.08 1.873-1.668 2.777H83.56c.17-.91.292-1.837.367-2.777zm-57.33-5.328a1.41 1.41 0 0 0-.272.024c-.249.566-.257 1.295.036 1.988.498 1.183 1.679 1.814 2.638 1.412.05-.307.041-.649-.033-1.01-.272-1.324-1.33-2.405-2.368-2.414zm-6.42-2.078c.455 1.557 1.29 3.387 2.351 4.537.2.217.117.565-.152.686-1.288.578-2.908-.736-3.473-1.943-.51-1.09-.274-2.687.569-3.475a.431.431 0 0 1 .705.195zm66.906 0a41.797 41.797 0 0 1-.997 2.777H83.904a26.834 26.834 0 0 0-.399-2.777zm1.621-7.406c-.119.935-.262 1.862-.44 2.777H82.137a26.729 26.729 0 0 0-1.283-2.777z" id="h6qa0vgvmc"/>
    </defs>
    <g fill="none" fill-rule="evenodd">
        <path d="M0 0h120v120H0z"/>
        <path fill="url(#hisux9r3xa)" d="M0 0h120v120H0z"/>
        <g>
            <use fill="#000" filter="url(#1udp230k6b)" xlink:href="#h6qa0vgvmc"/>
            <use fill="#FFF" xlink:href="#h6qa0vgvmc"/>
        </g>
        <path d="M48.293 79.669v2.962c0 .118.049.231.133.314a20.373 20.373 0 0 1 6.177 14.612v3.168h5.142v-3.168a20.37 20.37 0 0 1 6.177-14.612.438.438 0 0 0 .133-.314v-2.962a26.78 26.78 0 0 1-8.88 1.51c-3.114 0-6.101-.535-8.882-1.51" fill="#F6711B"/>
    </g>
</svg>
